<svg width="111" height="37" viewBox="0 0 111 37" fill="none" xmlns="http://www.w3.org/2000/svg">
<path d="M5.87848 19.665C4.81328 19.665 3.87562 19.4323 3.06546 18.9669C2.25531 18.4865 1.6252 17.826 1.17512 16.9852C0.725038 16.1297 0.5 15.1464 0.5 14.0354C0.5 12.6994 0.83006 11.5284 1.49018 10.5227C2.1653 9.51684 3.11797 8.74369 4.34819 8.20323C5.59342 7.6629 7.04869 7.39267 8.71399 7.39267C9.47913 7.39267 10.1017 7.44517 10.5818 7.55029V7.07743C10.5818 5.93647 10.3718 5.08829 9.95172 4.53285C9.53165 3.96239 8.89403 3.67716 8.03886 3.67716C6.65862 3.67716 5.77345 4.40524 5.38339 5.8614C5.26336 6.28175 5.01582 6.46189 4.64075 6.40184L1.5802 5.8614C1.35515 5.81637 1.19763 5.71879 1.10761 5.56868C1.0326 5.41855 1.02509 5.2159 1.08512 4.96069C1.47519 3.42946 2.30034 2.24351 3.56056 1.40284C4.8358 0.547165 6.4336 0.119324 8.35394 0.119324C10.6344 0.119324 12.3672 0.734815 13.5524 1.9658C14.7526 3.19678 15.3527 4.99071 15.3527 7.34766V18.6742C15.3527 18.8393 15.2928 18.9818 15.1727 19.1019C15.0677 19.2071 14.9326 19.2596 14.7676 19.2596H11.8421C11.482 19.2596 11.257 19.0644 11.167 18.6742L10.7169 16.5575H10.5368C10.1318 17.5483 9.52416 18.3138 8.71401 18.8543C7.91886 19.3947 6.97368 19.665 5.87848 19.665ZM5.40589 13.495C5.40589 14.2907 5.60843 14.9287 6.01349 15.409C6.43358 15.8744 6.99617 16.1071 7.7013 16.1071C8.63148 16.1071 9.34411 15.6942 9.8392 14.8685C10.3343 14.0279 10.5818 12.8269 10.5818 11.2658V10.0723C10.1617 9.99719 9.76419 9.95966 9.38911 9.95966C8.15889 9.95966 7.18371 10.2824 6.46358 10.928C5.75845 11.5585 5.40589 12.4142 5.40589 13.495ZM18.1432 1.1101C18.1432 0.944974 18.1958 0.809874 18.3007 0.704787C18.4207 0.584686 18.5633 0.524643 18.7283 0.524643H21.6988C21.8638 0.524643 21.9989 0.577178 22.1039 0.682265C22.224 0.787351 22.2989 0.92996 22.3289 1.1101L22.7791 3.31687H22.959C23.3642 2.28105 23.9417 1.49292 24.692 0.952483C25.457 0.397034 26.3572 0.119324 27.3923 0.119324C28.5026 0.119324 29.4552 0.412049 30.2503 0.997526C31.0605 1.58299 31.6832 2.41616 32.1182 3.49701H32.2983C32.9585 2.3561 33.7011 1.50793 34.5262 0.952483C35.3514 0.397034 36.274 0.119324 37.2942 0.119324C38.4044 0.119324 39.3646 0.419556 40.1747 1.02003C40.9999 1.62052 41.63 2.4762 42.0651 3.58709C42.5001 4.69798 42.7177 6.01153 42.7177 7.52772V18.6742C42.7177 18.8393 42.6576 18.9818 42.5376 19.1019C42.4326 19.2071 42.2976 19.2596 42.1326 19.2596H38.5319C38.3669 19.2596 38.2244 19.2071 38.1043 19.1019C37.9993 18.9818 37.9468 18.8393 37.9468 18.6742V7.88798C37.9468 6.7921 37.7368 5.95147 37.3167 5.36601C36.8966 4.78055 36.2891 4.48781 35.4938 4.48781C34.6237 4.48781 33.9561 4.83308 33.491 5.52363C33.041 6.21418 32.8159 7.21247 32.8159 8.51847V18.6742C32.8159 18.8393 32.7558 18.9818 32.6358 19.1019C32.5309 19.2071 32.3958 19.2596 32.2308 19.2596H28.6301C28.4651 19.2596 28.3225 19.2071 28.2025 19.1019C28.0975 18.9818 28.045 18.8393 28.045 18.6742V7.88798C28.045 6.7921 27.835 5.95147 27.4149 5.36601C26.9948 4.78055 26.3872 4.48781 25.5921 4.48781C24.7219 4.48781 24.0542 4.83308 23.5891 5.52363C23.1391 6.21418 22.9141 7.21247 22.9141 8.51847V18.6742C22.9141 18.8393 22.8541 18.9818 22.7341 19.1019C22.629 19.2071 22.4939 19.2596 22.3289 19.2596H18.7283C18.5633 19.2596 18.4207 19.2071 18.3007 19.1019C18.1958 18.9818 18.1432 18.8393 18.1432 18.6742V1.1101ZM45.058 14.0354C45.058 12.6994 45.3882 11.5284 46.0483 10.5227C46.7234 9.51684 47.676 8.74369 48.9063 8.20323C50.1515 7.6629 51.6068 7.39267 53.2721 7.39267C54.0373 7.39267 54.6599 7.44517 55.14 7.55029V7.07743C55.14 5.93647 54.9298 5.08829 54.5099 4.53285C54.0897 3.96239 53.4522 3.67716 52.597 3.67716C51.2168 3.67716 50.3316 4.40524 49.9415 5.8614C49.8215 6.28175 49.574 6.46189 49.1988 6.40184L46.1383 5.8614C45.9132 5.81637 45.7557 5.71879 45.6657 5.56868C45.5907 5.41855 45.5832 5.2159 45.6432 4.96069C46.0332 3.42946 46.8584 2.24351 48.1187 1.40284C49.3939 0.547165 50.9917 0.119324 52.912 0.119324C55.1924 0.119324 56.9252 0.734815 58.1105 1.9658C59.3107 3.19678 59.9109 4.99071 59.9109 7.34766V18.6742C59.9109 18.8393 59.8508 18.9818 59.7308 19.1019C59.6257 19.2071 59.4907 19.2596 59.3257 19.2596H56.4002C56.0401 19.2596 55.8151 19.0644 55.7251 18.6742L55.2749 16.5575H55.095C54.6898 17.5483 54.0823 18.3138 53.2721 18.8543C52.477 19.3947 51.5318 19.665 50.4366 19.665C49.3414 19.665 48.4338 19.4323 47.6236 18.9669C46.8134 18.4865 46.1833 17.826 45.7333 16.9852C45.2831 16.1297 45.058 15.1464 45.058 14.0354ZM49.964 13.495C49.964 14.2907 50.1666 14.9287 50.5716 15.409C50.9917 15.8744 51.5542 16.1071 52.2594 16.1071C53.1896 16.1071 53.9022 15.6942 54.3973 14.8685C54.8923 14.0279 55.14 12.8269 55.14 11.2658V10.0723C54.7198 9.99719 54.3223 9.95966 53.9472 9.95966C52.717 9.95966 51.7418 10.2824 51.0217 10.928C50.3166 11.5585 49.964 12.4142 49.964 13.495ZM62.3413 15.9495C62.3413 15.6193 62.4313 15.3339 62.6114 15.0938L70.3077 4.30767H63.1064C62.9414 4.30767 62.7988 4.25513 62.6788 4.15004C62.5738 4.02994 62.5212 3.88733 62.5212 3.7222V1.1101C62.5212 0.944974 62.5738 0.809874 62.6788 0.704787C62.7988 0.584686 62.9414 0.524643 63.1064 0.524643H74.9435C75.1086 0.524643 75.2436 0.584686 75.3487 0.704787C75.4687 0.809874 75.5286 0.944974 75.5286 1.1101V3.83478C75.5286 4.16506 75.4386 4.45027 75.2585 4.69047L68.2823 14.2831C68.7024 14.2081 69.13 14.1706 69.5651 14.1706C70.6453 14.1706 71.6355 14.2681 72.5356 14.4633C73.4507 14.6435 74.3959 14.9436 75.3711 15.364C75.7162 15.5141 75.8886 15.7693 75.8886 16.1297V18.7192C75.8886 18.9594 75.8138 19.1245 75.6637 19.2145C75.5137 19.2896 75.3261 19.2821 75.101 19.1921C73.9759 18.7717 72.9782 18.479 72.108 18.3138C71.2529 18.1337 70.3152 18.0436 69.295 18.0436C68.2748 18.0436 67.2996 18.1337 66.3244 18.3138C65.3643 18.494 64.2992 18.7867 63.1289 19.1921C62.9039 19.2672 62.7163 19.2672 62.5662 19.1921C62.4163 19.1019 62.3413 18.9443 62.3413 18.7192V15.9495ZM76.8789 9.89206C76.8789 8.0607 77.2315 6.40184 77.9366 4.91565C78.6417 3.41445 79.6093 2.24351 80.8396 1.40284C82.0849 0.547165 83.4651 0.119324 84.9803 0.119324C86.4956 0.119324 87.8909 0.547165 89.1211 1.40284C90.3663 2.24351 91.3415 3.41445 92.0467 4.91565C92.7667 6.40184 93.1269 8.0607 93.1269 9.89206C93.1269 11.7236 92.7667 13.39 92.0467 14.8911C91.3415 16.3773 90.3663 17.5483 89.1211 18.404C87.8909 19.2446 86.5107 19.665 84.9803 19.665C83.45 19.665 82.0849 19.2446 80.8396 18.404C79.6093 17.5483 78.6417 16.3773 77.9366 14.8911C77.2315 13.39 76.8789 11.7236 76.8789 9.89206ZM81.8298 9.89206C81.8298 11.7986 82.0998 13.2699 82.64 14.3056C83.1801 15.3265 83.9601 15.8369 84.9803 15.8369C86.0006 15.8369 86.7882 15.3265 87.3433 14.3056C87.8984 13.2699 88.1759 11.7986 88.1759 9.89206C88.1759 7.98563 87.8984 6.52194 87.3433 5.50113C86.7882 4.46529 86.0006 3.94737 84.9803 3.94737C83.9601 3.94737 83.1801 4.46529 82.64 5.50113C82.0998 6.52194 81.8298 7.98563 81.8298 9.89206ZM95.5572 1.1101C95.5572 0.944974 95.6098 0.809874 95.7149 0.704787C95.8349 0.584686 95.9773 0.524643 96.1423 0.524643H99.1129C99.2779 0.524643 99.413 0.577178 99.5181 0.682265C99.6381 0.787351 99.7131 0.92996 99.743 1.1101L100.193 3.31687H100.373C100.778 2.29606 101.371 1.50793 102.151 0.952483C102.946 0.397034 103.876 0.119324 104.941 0.119324C106.082 0.119324 107.064 0.419556 107.889 1.02003C108.73 1.62052 109.375 2.4762 109.825 3.58709C110.275 4.69798 110.5 6.01153 110.5 7.52772V18.6742C110.5 18.8393 110.44 18.9818 110.32 19.1019C110.215 19.2071 110.08 19.2596 109.915 19.2596H106.314C106.149 19.2596 106.007 19.2071 105.887 19.1019C105.782 18.9818 105.729 18.8393 105.729 18.6742V7.88798C105.729 6.7921 105.504 5.95147 105.054 5.36601C104.604 4.78055 103.966 4.48781 103.141 4.48781C102.226 4.48781 101.528 4.83308 101.048 5.52363C100.568 6.21418 100.328 7.21247 100.328 8.51847V18.6742C100.328 18.8393 100.268 18.9818 100.148 19.1019C100.043 19.2071 99.9081 19.2596 99.743 19.2596H96.1423C95.9773 19.2596 95.8349 19.2071 95.7149 19.1019C95.6098 18.9818 95.5572 18.8393 95.5572 18.6742V1.1101Z" fill="#171D27"/>
<path d="M13.0127 21.8486C12.7277 22.0738 12.6677 22.449 12.8327 22.9745C12.9827 23.4399 13.3353 24.0177 13.8904 24.7083C16.1258 27.4706 18.7888 29.7674 21.8793 31.5989C24.9699 33.4304 28.2781 34.7814 31.8037 35.6521C35.3443 36.5378 38.9599 36.9806 42.6506 36.9806C47.3765 36.9806 51.8773 36.2902 56.1531 34.909C60.4288 33.5429 63.9995 31.6213 66.8651 29.1444C67.8702 28.2587 68.3728 27.5532 68.3728 27.0277C68.3728 26.8325 68.2903 26.6374 68.1253 26.4422C67.9002 26.2171 67.6302 26.1421 67.3151 26.2171C67.0001 26.2921 66.5575 26.4797 65.9874 26.78C63.2419 28.2212 59.8963 29.3696 55.9506 30.2253C52.0199 31.096 47.9166 31.5313 43.6409 31.5313C38.3449 31.5313 33.2289 30.8108 28.293 29.3696C23.3571 27.9284 18.9838 25.6767 15.1731 22.6142C14.6181 22.1789 14.1679 21.901 13.8229 21.781C13.4928 21.6609 13.2228 21.6835 13.0127 21.8486Z" fill="#FF6201"/>
<path d="M63.0159 22.9758C62.7009 23.2761 62.6184 23.5913 62.7684 23.9216C62.8735 24.1618 63.076 24.2969 63.3761 24.3269C63.6761 24.3719 64.1036 24.3419 64.6587 24.2369C65.5589 24.0417 66.4966 23.9065 67.4718 23.8315C68.447 23.7715 69.2947 23.7865 70.0147 23.8765C70.735 23.9816 71.185 24.1618 71.3651 24.4169C71.6351 24.8224 71.5375 25.6779 71.0724 26.9841C70.6224 28.2901 70.0073 29.5585 69.2271 30.7896C68.927 31.2849 68.7471 31.6752 68.687 31.9606C68.627 32.2457 68.7021 32.4859 68.9121 32.6811C69.047 32.8161 69.1971 32.8837 69.3621 32.8837C69.7973 32.8837 70.4274 32.5009 71.2525 31.7353C72.7378 30.4443 73.7804 28.9131 74.3806 27.1417C74.7106 26.2259 74.9131 25.2652 74.9881 24.2593C75.0632 23.2536 74.9506 22.533 74.6505 22.0976C74.3655 21.6772 73.7354 21.3319 72.7602 21.0619C71.8001 20.7916 70.8324 20.6564 69.8572 20.6564C67.9518 20.6564 66.144 21.1069 64.4338 22.0076C63.8037 22.3529 63.3311 22.6756 63.0159 22.9758Z" fill="#FF6201"/>
</svg>
