<svg width="72" height="71" viewBox="0 0 72 71" fill="none" xmlns="http://www.w3.org/2000/svg">
<circle cx="36" cy="35.5869" r="35.3017" fill="#576ADF" fill-opacity="0.13"/>
<path d="M31.5877 37.0583C34.8372 37.0583 37.4713 34.4241 37.4713 31.1746C37.4713 27.9252 34.8372 25.291 31.5877 25.291C28.3383 25.291 25.7041 27.9252 25.7041 31.1746C25.7041 34.4241 28.3383 37.0583 31.5877 37.0583Z" stroke="#576ADF" stroke-width="2.94181" stroke-linecap="round" stroke-linejoin="round"/>
<path d="M41.8837 45.8837C41.8837 41.0091 37.2739 37.0583 31.5874 37.0583C25.9008 37.0583 21.291 41.0091 21.291 45.8837M40.4128 37.0583C41.3959 37.0582 42.3634 36.8118 43.2267 36.3415C44.0901 35.8713 44.8219 35.1922 45.3552 34.3663C45.8885 33.5404 46.2063 32.594 46.2797 31.6136C46.353 30.6332 46.1795 29.65 45.775 28.754C45.3706 27.8579 44.748 27.0775 43.9642 26.484C43.1804 25.8905 42.2604 25.5029 41.2882 25.3566C40.316 25.2102 39.3227 25.3098 38.3989 25.6463C37.4751 25.9828 36.6504 26.5453 36.0001 27.2826" stroke="#576ADF" stroke-width="2.94181" stroke-linecap="round" stroke-linejoin="round"/>
<path d="M50.7091 45.8842C50.7091 41.0096 46.0992 37.0588 40.4127 37.0588C39.2257 37.0588 37.3194 36.6278 36 35.2422" stroke="#576ADF" stroke-width="2.94181" stroke-linecap="round" stroke-linejoin="round"/>
</svg>
