<svg width="111" height="35" viewBox="0 0 111 35" fill="none" xmlns="http://www.w3.org/2000/svg">
<path d="M77.9708 3.04446C77.9708 3.04446 75.9088 3.86442 73.5106 6.50471C71.1124 9.14499 69.7156 12.114 70.7493 12.9036C71.1464 13.2037 72.062 13.2608 73.7234 11.7603C75.2567 10.4305 76.4602 8.76359 77.2394 6.89057C78.3124 4.27707 77.9708 3.07662 77.9708 3.04803M91.0958 7.79448C88.4311 6.42968 86.4835 4.75761 84.4573 3.72329C82.5241 2.73184 81.274 2.3174 79.7109 2.52641C79.4929 2.56523 79.2778 2.61895 79.0671 2.68718C79.0671 2.68718 79.8719 5.43287 76.6689 10.0453C73.4248 14.7221 70.4811 14.69 69.6441 13.4055C68.7678 12.0497 69.8998 9.28612 71.7902 6.82626C73.7699 4.25385 77.2465 2.1209 77.2465 2.1209C77.2465 2.1209 76.1377 1.44385 73.4158 2.98551C70.7601 4.48251 66.1889 8.05529 61.9469 14.0808C57.7049 20.1063 56.8643 23.4218 56.2563 26.0318C55.6482 28.6417 56.2008 31.4374 59.098 31.4374C61.9952 31.4374 65.3681 27.0232 66.3195 25.4887C68.0882 22.6305 69.2417 18.2467 66.8346 18.8487C65.6489 19.1452 64.6885 20.4564 64.0822 21.7194C63.6995 22.5306 63.4068 23.3812 63.2095 24.2561C62.3684 24.6024 61.5784 25.0615 60.8614 25.6209C60.0637 26.2111 59.3182 26.8685 58.633 27.5859C58.633 27.5859 58.6438 25.4994 60.3087 22.1231C61.9737 18.7469 65.0301 17.2052 66.7612 17.0605C68.3207 16.9355 70.3505 18.2574 68.6301 23.1342C66.9097 28.0111 61.8342 33.9401 56.5031 34.0134C51.5832 34.0813 48.3641 27.8092 55.2118 16.864C62.791 4.7719 71.6811 1.06157 74.5675 0.648909C77.454 0.236252 78.3929 1.50816 78.3929 1.50816C80.1304 0.796117 82.007 0.487057 83.8814 0.604249C87.4063 0.841839 90.1319 3.33386 93.7301 5.08452C92.7948 5.97772 91.9024 6.91558 91.0976 7.79448M106.932 3.72329C104.489 5.28817 101.109 6.70657 97.8613 6.40288C97.0386 7.25142 96.1587 8.23393 95.277 9.30577C100.909 10.4187 105.843 6.93344 108.466 3.96624C109.423 2.89942 110.244 1.71931 110.913 0.452406C109.718 1.6951 108.382 2.79296 106.93 3.72329M99.4315 19.5722C99.4741 19.498 99.5089 19.4196 99.5352 19.3382C99.5185 19.2093 99.458 19.0901 99.364 19.0004C99.2699 18.9107 99.1479 18.8559 99.0183 18.8451C98.4818 18.8201 97.7504 18.9219 95.8314 21.0442C94.2395 22.7967 92.8695 24.7382 91.7521 26.8249C90.6541 28.8293 90.2088 30.3227 90.84 30.7085C91.0452 30.8147 91.283 30.8389 91.5053 30.7764C91.9328 30.6746 92.4174 30.2745 93.1542 29.4223C93.4994 29.0222 93.8821 28.4559 94.3399 27.8289C95.6097 26.1032 98.8002 20.6708 99.4315 19.5722ZM79.4981 21.8802C79.8182 21.0442 80.226 19.4025 79.3783 18.7576C78.468 18.0734 76.1467 19.6794 76.1342 21.3264C76.1181 23.0128 77.7687 23.7756 78.164 23.8827C78.3893 23.9435 78.468 23.9345 78.5771 23.7541C78.9272 23.1515 79.2349 22.5254 79.4981 21.8802ZM77.7419 24.9474C77.1667 24.6821 76.6301 24.3402 76.1467 23.931C75.662 23.5248 75.2569 23.0324 74.952 22.4786C74.9198 22.425 74.8877 22.4661 74.8519 22.5144C74.8161 22.5626 74.673 22.693 73.4355 24.5044C72.1979 26.3158 70.2969 30.069 72.0173 30.7085C73.1189 31.1176 74.952 29.1901 75.9517 27.9128C76.6329 27.0213 77.2502 26.0829 77.7991 25.1046C77.851 24.9957 77.7991 24.9706 77.7437 24.9474M97.2586 29.283C96.7918 30.0297 96.2589 31.4624 97.7951 30.571C99.6747 29.4867 102.352 25.4298 102.352 25.4298H103.566C102.461 27.1268 101.231 28.739 99.8857 30.253C97.9811 32.361 95.658 34.276 94.0216 34.0866C92.1098 33.8633 92.7089 31.357 92.7089 31.357C92.7089 31.357 89.9745 34.2653 88.0824 34.0562C85.5268 33.774 86.3065 30.6192 86.3065 30.6192C86.3065 30.6192 83.4165 34.1616 81.4475 34.0527C78.3607 33.874 79.1369 30.1226 79.9953 27.4805C80.4549 26.0675 80.8805 24.9581 80.8805 24.9581C80.8805 24.9581 80.5747 25.0385 79.9166 25.1368C79.5732 25.185 78.9473 25.2207 78.9473 25.2207C78.9473 25.2207 77.6614 27.4859 76.6331 28.8471C75.6048 30.2084 71.234 34.9012 68.6623 33.9616C66.2837 33.0934 67.0706 29.4563 68.4548 26.5659C70.4757 22.3518 76.1592 16.2977 79.4373 17.098C82.8352 17.9215 79.5142 24.115 79.5142 24.115C79.5142 24.115 79.5142 24.1382 79.55 24.1543C79.6179 24.1793 79.795 24.1989 80.2045 24.1185C80.6289 24.0321 81.0449 23.9083 81.4475 23.7488C81.4475 23.7488 84.8633 16.6032 88.6368 11.9282C92.4103 7.2532 99.9376 -0.798069 102.892 1.1491C103.607 1.62785 103.285 3.27669 102.313 5.27745C101.874 5.41963 101.429 5.53889 100.978 5.63473C101.629 4.45393 102.06 3.4589 102.189 2.764C102.634 0.348795 96.9885 5.44359 92.9539 10.9171C90.5237 14.2168 88.3646 17.7075 86.4979 21.355C87.2267 20.911 87.9224 20.4149 88.5795 19.8705C90.3792 18.38 92.0894 16.7849 93.7015 15.0937C95.2538 13.5063 96.7097 11.8276 98.0616 10.0668C98.4911 10.046 98.9191 10.0019 99.3438 9.93458C97.8699 11.9329 96.2626 13.8296 94.5331 15.6117C92.9235 17.2374 91.1816 18.9862 89.6687 20.2564C88.3173 21.4043 86.8918 22.4623 85.4016 23.4236C85.4016 23.4236 81.8731 30.5317 83.792 30.9872C84.9205 31.2588 87.1488 27.8307 87.1488 27.8307C87.1488 27.8307 90.0567 23.3986 91.8094 21.3996C94.2004 18.6843 96.2589 17.1123 98.3155 17.0837C99.5137 17.0623 100.22 18.3342 100.22 18.3342L100.783 17.4624H104.253C104.253 17.4624 97.7736 28.4452 97.255 29.2723M106.93 3.72329C104.487 5.28817 101.107 6.70657 97.8595 6.40288C97.0368 7.25142 96.1569 8.23393 95.2753 9.30577C100.907 10.4187 105.841 6.93344 108.465 3.96624C109.422 2.89952 110.244 1.71941 110.913 0.452406C109.718 1.6951 108.382 2.79296 106.93 3.72329ZM58.2056 9.11105H54.906L53.0407 12.1211H56.3403L58.2056 9.11105ZM42.5823 19.5347C43.9862 17.6125 47.8598 10.876 47.8598 10.876C47.8435 10.7473 47.7834 10.6282 47.6896 10.5384C47.5959 10.4487 47.4741 10.3938 47.3447 10.383C46.8082 10.358 45.914 10.5384 44.1382 12.7589C42.3623 14.9794 40.9835 16.7461 39.9784 18.5843C38.8767 20.5904 38.3957 22.0052 39.0287 22.3893C39.2342 22.4921 39.4702 22.5163 39.6922 22.4572C40.1036 22.3536 40.6419 21.9409 41.3805 21.0924C41.7274 20.6958 42.1209 20.1617 42.5823 19.5347ZM24.8773 10.4241C23.9652 9.73629 21.6456 11.3458 21.6331 12.9893C21.6188 14.6775 23.7202 15.1937 23.992 15.2062C24.072 15.2129 24.1521 15.1961 24.2227 15.158C24.2712 15.1297 24.3099 15.0874 24.3336 15.0365C24.5806 14.5516 24.8027 14.0543 24.9989 13.5467C25.319 12.7106 25.7249 11.0689 24.8773 10.4241ZM23.502 16.2352C22.8731 16.0389 22.272 15.7628 21.7136 15.4134C21.1725 15.0611 20.7324 14.5741 20.4367 14.0004C20.4045 13.9468 20.3687 13.9879 20.3365 14.0361C20.3044 14.0844 20.1184 14.3166 18.8772 16.1351C17.6361 17.9537 15.7976 21.673 17.5198 22.3125C18.6179 22.7287 20.4725 20.7851 21.4793 19.5132C22.2328 18.5137 22.929 17.4723 23.5646 16.3942C23.6057 16.2852 23.5646 16.2602 23.5038 16.2405M50.4512 17.3553H51.6601C51.6601 17.3553 45.6029 26.1086 42.1817 25.7013C40.2717 25.478 40.8386 23.1235 40.8386 23.1235C40.8386 23.1235 38.156 26.2604 35.6916 25.6245C33.4561 25.051 34.8994 21.3371 34.8994 21.3371C34.6454 21.4389 29.8078 26.8857 26.4081 25.5798C22.851 24.2079 24.6984 19.6472 25.3744 18.2752C25.9485 17.1195 26.5834 15.994 26.5834 15.994C26.5834 15.994 26.0379 16.1477 25.6892 16.2263C25.3404 16.3049 24.8361 16.4049 24.8361 16.4049C24.8361 16.4049 23.1532 19.1363 22.1249 20.4993C21.0966 21.8623 16.7258 26.5462 14.1505 25.6138C11.5752 24.6813 12.2137 21.0817 13.6605 18.2234C16.0069 13.5878 21.5741 7.89095 24.9273 8.75556C28.3145 9.61839 25.5103 15.1062 25.5103 15.1062C25.5103 15.1062 26.1846 15.1937 27.7995 14.0933C30.1244 12.5088 33.1932 8.24644 36.5161 8.74663C38.0827 8.98243 39.542 10.5813 37.5462 13.6181C36.9095 14.5935 35.8418 15.4653 35.0246 14.6024C34.5149 14.0665 34.9602 13.0893 35.4949 12.4212C35.703 12.1489 35.975 11.9318 36.2868 11.7892C36.5987 11.6465 36.9409 11.5826 37.2833 11.6031C37.2833 11.6031 37.8323 10.3526 36.4356 10.3705C35.3053 10.3919 32.4439 13.0233 30.829 15.6814C29.3482 18.1216 27.1038 22.2786 29.3572 23.1843C31.4227 24.0167 35.3536 19.356 37.1742 16.914C38.9948 14.472 43.1438 8.93777 46.624 8.71626C47.8222 8.63766 48.5358 9.72914 48.5358 9.72914L48.9382 9.09319H52.4184C52.4184 9.09319 45.864 20.0188 45.3525 20.8459C44.9501 21.4925 44.4154 22.9467 45.889 22.1321C47.3626 21.3175 50.4512 17.3553 50.4512 17.3553ZM48.5573 34.8619C45.9948 33.0901 42.9264 32.1956 39.8121 32.3127C38.9691 32.3357 38.1435 32.5568 37.4021 32.9581C36.6607 33.3594 36.0245 33.9297 35.545 34.6225C34.218 32.3092 31.5944 30.889 27.5384 30.9211C20.9839 30.9962 14.4832 34.0152 9.33261 34.0116C4.39667 34.0116 0.796648 30.9122 0.912893 25.4083C1.12929 15.7493 9.30042 7.05134 15.3988 3.13735C18.9148 0.888286 21.8549 0.220175 23.7774 0.436328C25.1795 0.591744 26.8659 2.21022 25.8018 4.59505C24.2388 8.0803 22.0802 7.79448 22.1607 6.12778C22.2054 5.04344 22.9279 4.36103 23.4716 3.9841C23.8167 3.74651 24.4266 3.67863 24.7449 3.67149C25.0543 3.41067 25.2814 1.5028 22.7777 2.12983C20.274 2.75685 17.2337 5.22208 14.3472 8.40721C11.4608 11.5924 6.96658 17.6125 5.85599 23.9345C5.33736 26.866 5.67715 32.2127 12.6358 32.1519C18.5374 32.1037 27.2361 28.2219 35.2302 28.3023C38.3331 28.3326 41.0335 29.1687 43.1385 30.4656C45.2058 31.7375 47.6845 33.5954 48.5644 34.8637" fill="#E61D2B"/>
</svg>
