<svg width="1389" height="361" viewBox="0 0 1389 361" fill="none" xmlns="http://www.w3.org/2000/svg">
<path d="M943.232 260.722L863.253 279.308L917.292 339.647L943.232 260.722Z" stroke="#CCD7EC" stroke-width="3.84717" stroke-miterlimit="10"/>
<path d="M825.445 114.798L746.185 132.852L800.11 193.063L825.445 114.798Z" stroke="#CCD7EC" stroke-width="3.21646" stroke-miterlimit="10"/>
<path d="M1115.99 293.893L1117.41 273.444L1098 272.656L1099.33 253.641L1089.62 253.246L1090.81 235.372L1118.47 236.495L1117.15 255.509L1136.55 256.298L1135.13 276.747L1156.33 277.608L1154.28 307.02L1136.39 306.241L1137.19 294.754L1115.99 293.893Z" fill="#CCD7EC"/>
<path d="M978.552 136.139C969.474 144.269 955.694 143.688 947.772 134.842C939.85 125.996 940.787 112.237 949.865 104.107C958.943 95.9763 972.722 96.5561 980.644 105.402C988.567 114.248 987.631 128.008 978.552 136.139Z" fill="#CCD7EC"/>
<path d="M1281.43 118.137C1271.72 126.834 1256.98 126.213 1248.5 116.75C1240.03 107.289 1241.03 92.5671 1250.74 83.87C1260.45 75.1723 1275.2 75.7934 1283.67 85.2548C1292.15 94.7178 1291.14 109.439 1281.43 118.137Z" stroke="#CCD7EC" stroke-width="3.15017" stroke-miterlimit="10"/>
<path d="M1113.2 291.212L1114.93 266.261L1091.26 265.301L1092.87 242.101L1074.58 241.358L1075.18 232.379L1102.49 233.487L1100.87 256.688L1124.55 257.648L1122.81 282.598L1148.68 283.646L1146.63 313.099L1137.64 312.708L1139.06 292.261L1113.2 291.212Z" fill="#E6E9FA"/>
<mask id="mask0_361_9324" style="mask-type:luminance" maskUnits="userSpaceOnUse" x="63" y="56" width="139" height="73">
<path d="M63.7146 122.334L137.184 56.5355L201.297 128.123L63.7146 122.334Z" fill="white"/>
</mask>
<g mask="url(#mask0_361_9324)">
<path d="M-0.376831 79.7113L271.612 91.1547L-0.376831 79.7113Z" fill="#EEF0FC"/>
</g>
<mask id="mask1_361_9324" style="mask-type:luminance" maskUnits="userSpaceOnUse" x="63" y="56" width="139" height="73">
<path d="M63.7146 122.334L137.184 56.5355L201.297 128.123L63.7146 122.334Z" fill="white"/>
</mask>
<g mask="url(#mask1_361_9324)">
<path d="M2.03577 44.2981L274.024 55.7415L2.03577 44.2981Z" fill="#D6DFF0"/>
</g>
<mask id="mask2_361_9324" style="mask-type:luminance" maskUnits="userSpaceOnUse" x="63" y="56" width="139" height="73">
<path d="M63.7146 122.334L137.184 56.5355L201.297 128.123L63.7146 122.334Z" fill="white"/>
</mask>
<g mask="url(#mask2_361_9324)">
<path d="M2.84009 32.4937L274.829 43.937L2.84009 32.4937Z" fill="#D6DFF0"/>
</g>
<mask id="mask3_361_9324" style="mask-type:luminance" maskUnits="userSpaceOnUse" x="0" y="-53" width="138" height="72">
<path d="M0.00012207 12.8L73.4712 -52.9998L137.584 18.5878L0.00012207 12.8Z" fill="white"/>
</mask>
<g mask="url(#mask3_361_9324)">
<path d="M-69.0457 42.9587L-68.781 39.0476L203.208 50.4935L202.943 54.4021L-69.0457 42.9587Z" fill="#F8A520"/>
</g>
<mask id="mask4_361_9324" style="mask-type:luminance" maskUnits="userSpaceOnUse" x="91" y="46" width="139" height="73">
<path d="M91.4734 112.677L164.944 46.8768L229.058 118.464L91.4734 112.677Z" fill="white"/>
</mask>
<g mask="url(#mask4_361_9324)">
<path d="M23.2299 131.03L23.4965 127.12L295.484 138.566L295.22 142.474L23.2299 131.03Z" fill="#D6DFF0"/>
</g>
<mask id="mask5_361_9324" style="mask-type:luminance" maskUnits="userSpaceOnUse" x="91" y="46" width="139" height="73">
<path d="M91.4734 112.677L164.944 46.8768L229.058 118.464L91.4734 112.677Z" fill="white"/>
</mask>
<g mask="url(#mask5_361_9324)">
<path d="M24.0342 119.225L24.3002 115.316L296.29 126.761L296.024 130.67L24.0342 119.225Z" fill="#D6DFF0"/>
</g>
<mask id="mask6_361_9324" style="mask-type:luminance" maskUnits="userSpaceOnUse" x="91" y="46" width="139" height="73">
<path d="M91.4734 112.677L164.944 46.8768L229.058 118.464L91.4734 112.677Z" fill="white"/>
</mask>
<g mask="url(#mask6_361_9324)">
<path d="M24.8376 107.422L25.1052 103.511L297.092 114.955L296.826 118.865L24.8376 107.422Z" fill="#D6DFF0"/>
</g>
<mask id="mask7_361_9324" style="mask-type:luminance" maskUnits="userSpaceOnUse" x="91" y="46" width="139" height="73">
<path d="M91.4734 112.677L164.944 46.8768L229.058 118.464L91.4734 112.677Z" fill="white"/>
</mask>
<g mask="url(#mask7_361_9324)">
<path d="M25.642 95.6178L25.9096 91.7066L297.897 103.151L297.631 107.061L25.642 95.6178Z" fill="#D6DFF0"/>
</g>
<mask id="mask8_361_9324" style="mask-type:luminance" maskUnits="userSpaceOnUse" x="91" y="46" width="139" height="73">
<path d="M91.4734 112.677L164.944 46.8768L229.058 118.464L91.4734 112.677Z" fill="white"/>
</mask>
<g mask="url(#mask8_361_9324)">
<path d="M26.4476 83.8122L26.7129 79.9006L298.701 91.3468L298.436 95.2554L26.4476 83.8122Z" fill="#D6DFF0"/>
</g>
<mask id="mask9_361_9324" style="mask-type:luminance" maskUnits="userSpaceOnUse" x="91" y="46" width="139" height="73">
<path d="M91.4734 112.677L164.944 46.8768L229.058 118.464L91.4734 112.677Z" fill="white"/>
</mask>
<g mask="url(#mask9_361_9324)">
<path d="M27.2529 72.0072L27.5165 68.0972L299.505 79.5431L299.24 83.4518L27.2529 72.0072Z" fill="#D6DFF0"/>
</g>
<mask id="mask10_361_9324" style="mask-type:luminance" maskUnits="userSpaceOnUse" x="88" y="48" width="139" height="73">
<path d="M88.8611 114.769L162.332 48.9691L226.445 120.557L88.8611 114.769Z" fill="white"/>
</mask>
<g mask="url(#mask10_361_9324)">
<path d="M25.4438 62.2958L25.7074 58.3858L297.696 69.8293L297.431 73.7407L25.4438 62.2958Z" fill="#D6DFF0"/>
</g>
<mask id="mask11_361_9324" style="mask-type:luminance" maskUnits="userSpaceOnUse" x="76" y="142" width="139" height="73">
<path d="M76.9998 208.799L150.471 142.999L214.584 214.587L76.9998 208.799Z" fill="white"/>
</mask>
<g mask="url(#mask11_361_9324)">
<path d="M14.3844 144.519L14.6505 140.612L286.639 152.056L286.374 155.967L14.3844 144.519Z" fill="#E6E9FA"/>
</g>
<path d="M897.205 215.037C884.41 200.751 885.928 178.444 900.591 165.312L910.973 176.905C902.871 184.161 902.033 196.487 909.103 204.381C916.173 212.276 928.515 212.795 936.617 205.539L947 217.132C932.337 230.264 910 229.324 897.205 215.037Z" fill="#CCD7EC"/>
<path d="M901.39 200.836C890.111 188.241 891.45 168.577 904.376 157L909.262 162.455C899.423 171.266 898.404 186.234 906.99 195.82C915.575 205.406 930.564 206.038 940.403 197.226L945.289 202.682C932.362 214.259 912.67 213.43 901.39 200.836Z" fill="#E6E9FA"/>
<path d="M1090.14 163.076L1092.85 124.142L1105.71 124.703L1103 163.636L1090.14 163.076Z" fill="#D6DFF0"/>
<path d="M1078 149.52L1078.86 136.675L1117.85 138.259L1117 151.102L1078 149.52Z" fill="#D6DFF0"/>
<path d="M367.616 262.013C350.728 277.138 325.088 276.059 310.35 259.603C295.612 243.147 297.356 217.544 314.244 202.418C331.134 187.292 356.774 188.371 371.512 204.827C386.25 221.283 384.506 246.886 367.616 262.013Z" fill="#E6E9FA"/>
<path d="M770.039 278.864C766.527 282.009 761.779 282.893 757.654 281.588C758.5 285.83 757.1 290.452 753.585 293.6C750.072 296.746 745.324 297.628 741.2 296.324C742.045 300.565 740.647 305.187 737.133 308.335C733.618 311.482 728.872 312.365 724.748 311.058C725.591 315.303 724.192 319.924 720.679 323.071C717.166 326.217 712.418 327.101 708.294 325.794C709.138 330.038 707.738 334.66 704.225 337.806C700.71 340.954 695.961 341.837 691.84 340.53C692.683 344.773 691.284 349.396 687.771 352.542C682.541 357.226 674.572 356.894 670.006 351.796L672.313 349.731C675.768 353.589 681.8 353.843 685.76 350.297C689.269 347.154 689.987 342.068 687.707 338.267C687.268 337.899 686.852 337.498 686.46 337.06L685.454 335.937L687.974 333.68L688.98 334.803C689.372 335.241 689.724 335.699 690.043 336.175C693.569 338.86 698.705 338.703 702.214 335.561C705.72 332.421 706.444 327.334 704.163 323.534C703.724 323.166 703.307 322.763 702.914 322.324L701.908 321.201L704.428 318.944L705.434 320.067C705.827 320.506 706.182 320.965 706.499 321.442C710.026 324.126 715.16 323.966 718.667 320.825C722.175 317.683 722.896 312.6 720.616 308.799C720.178 308.43 719.76 308.029 719.367 307.59L718.36 306.466L720.882 304.208L721.888 305.331C722.281 305.77 722.636 306.229 722.953 306.706C726.48 309.39 731.614 309.23 735.121 306.089C738.629 302.948 739.35 297.859 737.069 294.059C736.629 293.691 736.214 293.29 735.822 292.852L734.816 291.729L737.334 289.473L738.341 290.597C738.732 291.034 739.086 291.491 739.405 291.967C742.93 294.653 748.066 294.495 751.574 291.354C755.083 288.212 755.804 283.128 753.525 279.326C753.086 278.958 752.667 278.557 752.274 278.118L751.268 276.994L753.79 274.736L754.796 275.86C755.189 276.299 755.544 276.757 755.861 277.234C759.388 279.918 764.522 279.758 768.028 276.618C771.988 273.071 772.399 267.047 768.944 263.189L771.25 261.124C775.815 266.221 775.272 274.177 770.039 278.864Z" fill="#D6DFF0"/>
<path d="M1357.93 329.892C1374.33 313.997 1375.72 288.246 1360.79 271.566C1345.85 254.886 1320.1 253.447 1302.5 268.003L1357.93 329.892Z" fill="#CCD7EC"/>
<path d="M1340.41 322.04C1349.89 312.853 1350.7 297.972 1342.07 288.331C1333.43 278.691 1318.55 277.86 1308.38 286.272L1340.41 322.04Z" fill="#D6DFF0"/>
<path d="M156.464 337.901C139.713 319.198 141.703 289.997 160.897 272.806C180.093 255.615 209.336 256.845 226.086 275.548L210.511 289.498C201.255 279.163 185.096 278.484 174.489 287.983C163.883 297.481 162.784 313.617 172.04 323.952L156.464 337.901Z" fill="#EEF0FC"/>
<path d="M160.083 327.889C145.318 311.403 147.07 285.658 163.992 270.504C180.913 255.349 206.694 256.435 221.459 272.922L214.13 279.486C202.891 266.937 183.268 266.111 170.388 277.646C157.508 289.181 156.174 308.776 167.413 321.325L160.083 327.889Z" fill="#D6DFF0"/>
<mask id="mask12_361_9324" style="mask-type:luminance" maskUnits="userSpaceOnUse" x="257" y="5" width="100" height="99">
<path d="M339.777 90.7205C319.245 109.108 288.077 107.797 270.16 87.7913C252.243 67.7857 254.363 36.6616 274.894 18.2739C295.426 -0.113881 326.593 1.19866 344.51 21.2042C362.427 41.2098 360.308 72.3328 339.777 90.7205Z" fill="white"/>
</mask>
<g mask="url(#mask12_361_9324)">
</g>
<mask id="mask13_361_9324" style="mask-type:luminance" maskUnits="userSpaceOnUse" x="257" y="5" width="100" height="99">
<path d="M339.777 90.7205C319.245 109.108 288.077 107.797 270.16 87.7913C252.243 67.7857 254.363 36.6616 274.894 18.2739C295.426 -0.113881 326.593 1.19866 344.51 21.2042C362.427 41.2098 360.308 72.3328 339.777 90.7205Z" fill="white"/>
</mask>
<g mask="url(#mask13_361_9324)">
<path d="M346.721 71.162C345.925 70.2737 346.016 68.8943 346.924 68.081C347.833 67.2668 349.213 67.3293 350.008 68.2176C350.802 69.1035 350.712 70.4819 349.803 71.2962C348.895 72.1094 347.514 72.0479 346.721 71.162Z" fill="#D6DFF0"/>
</g>
<mask id="mask14_361_9324" style="mask-type:luminance" maskUnits="userSpaceOnUse" x="257" y="5" width="100" height="99">
<path d="M339.777 90.7205C319.245 109.108 288.077 107.797 270.16 87.7913C252.243 67.7857 254.363 36.6616 274.894 18.2739C295.426 -0.113881 326.593 1.19866 344.51 21.2042C362.427 41.2098 360.308 72.3328 339.777 90.7205Z" fill="white"/>
</mask>
<g mask="url(#mask14_361_9324)">
<path d="M330.396 52.9348C329.602 52.0477 329.693 50.6694 330.601 49.8562C331.511 49.0419 332.889 49.1033 333.684 49.9904C334.479 50.8787 334.389 52.2559 333.48 53.0702C332.572 53.8834 331.192 53.823 330.396 52.9348Z" fill="#D6DFF0"/>
</g>
<mask id="mask15_361_9324" style="mask-type:luminance" maskUnits="userSpaceOnUse" x="257" y="5" width="100" height="99">
<path d="M339.777 90.7205C319.245 109.108 288.077 107.797 270.16 87.7913C252.243 67.7857 254.363 36.6616 274.894 18.2739C295.426 -0.113881 326.593 1.19866 344.51 21.2042C362.427 41.2098 360.308 72.3328 339.777 90.7205Z" fill="white"/>
</mask>
<g mask="url(#mask15_361_9324)">
<path d="M326.362 89.3956C325.566 88.5073 325.658 87.1268 326.565 86.3147C327.474 85.5004 328.856 85.5608 329.652 86.4491C330.445 87.335 330.353 88.7155 329.444 89.5298C328.537 90.342 327.155 90.2815 326.362 89.3956Z" fill="#D6DFF0"/>
</g>
<mask id="mask16_361_9324" style="mask-type:luminance" maskUnits="userSpaceOnUse" x="257" y="5" width="100" height="99">
<path d="M339.777 90.7205C319.245 109.108 288.077 107.797 270.16 87.7913C252.243 67.7857 254.363 36.6616 274.894 18.2739C295.426 -0.113881 326.593 1.19866 344.51 21.2042C362.427 41.2098 360.308 72.3328 339.777 90.7205Z" fill="white"/>
</mask>
<g mask="url(#mask16_361_9324)">
<path d="M310.037 71.1679C309.243 70.2808 309.335 68.9015 310.242 68.0893C311.151 67.2751 312.533 67.3343 313.327 68.2214C314.123 69.1097 314.03 70.4891 313.121 71.3033C312.214 72.1155 310.833 72.0562 310.037 71.1679Z" fill="#D6DFF0"/>
</g>
<mask id="mask17_361_9324" style="mask-type:luminance" maskUnits="userSpaceOnUse" x="257" y="5" width="100" height="99">
<path d="M339.777 90.7205C319.245 109.108 288.077 107.797 270.16 87.7913C252.243 67.7857 254.363 36.6616 274.894 18.2739C295.426 -0.113881 326.593 1.19866 344.51 21.2042C362.427 41.2098 360.308 72.3328 339.777 90.7205Z" fill="white"/>
</mask>
<g mask="url(#mask17_361_9324)">
<path d="M293.714 52.9428C292.92 52.0557 293.013 50.6762 293.92 49.8641C294.829 49.0498 296.21 49.1091 297.005 49.9962C297.8 50.8845 297.707 52.2638 296.798 53.0781C295.891 53.8902 294.51 53.831 293.714 52.9428Z" fill="#D6DFF0"/>
</g>
<mask id="mask18_361_9324" style="mask-type:luminance" maskUnits="userSpaceOnUse" x="257" y="5" width="100" height="99">
<path d="M339.777 90.7205C319.245 109.108 288.077 107.797 270.16 87.7913C252.243 67.7857 254.363 36.6616 274.894 18.2739C295.426 -0.113881 326.593 1.19866 344.51 21.2042C362.427 41.2098 360.308 72.3328 339.777 90.7205Z" fill="white"/>
</mask>
<g mask="url(#mask18_361_9324)">
<path d="M306.003 107.629C305.208 106.741 305.298 105.361 306.207 104.547C307.115 103.734 308.496 103.795 309.292 104.683C310.085 105.569 309.995 106.949 309.087 107.762C308.178 108.576 306.797 108.515 306.003 107.629Z" fill="#D6DFF0"/>
</g>
<mask id="mask19_361_9324" style="mask-type:luminance" maskUnits="userSpaceOnUse" x="257" y="5" width="100" height="99">
<path d="M339.777 90.7205C319.245 109.108 288.077 107.797 270.16 87.7913C252.243 67.7857 254.363 36.6616 274.894 18.2739C295.426 -0.113881 326.593 1.19866 344.51 21.2042C362.427 41.2098 360.308 72.3328 339.777 90.7205Z" fill="white"/>
</mask>
<g mask="url(#mask19_361_9324)">
<path d="M289.679 89.4008C288.884 88.5137 288.976 87.1355 289.885 86.3212C290.793 85.508 292.173 85.5683 292.967 86.4554C293.763 87.3437 293.671 88.722 292.763 89.5352C291.854 90.3495 290.474 90.2891 289.679 89.4008Z" fill="#D6DFF0"/>
</g>
<mask id="mask20_361_9324" style="mask-type:luminance" maskUnits="userSpaceOnUse" x="257" y="5" width="100" height="99">
<path d="M339.777 90.7205C319.245 109.108 288.077 107.797 270.16 87.7913C252.243 67.7857 254.363 36.6616 274.894 18.2739C295.426 -0.113881 326.593 1.19866 344.51 21.2042C362.427 41.2098 360.308 72.3328 339.777 90.7205Z" fill="white"/>
</mask>
<g mask="url(#mask20_361_9324)">
<path d="M273.356 71.1751C272.562 70.288 272.654 68.9096 273.563 68.0953C274.471 67.2821 275.851 67.3425 276.645 68.2296C277.441 69.1179 277.349 70.4961 276.441 71.3093C275.532 72.1236 274.152 72.0633 273.356 71.1751Z" fill="#D6DFF0"/>
</g>
<mask id="mask21_361_9324" style="mask-type:luminance" maskUnits="userSpaceOnUse" x="257" y="5" width="100" height="99">
<path d="M339.777 90.7205C319.245 109.108 288.077 107.797 270.16 87.7913C252.243 67.7857 254.363 36.6616 274.894 18.2739C295.426 -0.113881 326.593 1.19866 344.51 21.2042C362.427 41.2098 360.308 72.3328 339.777 90.7205Z" fill="white"/>
</mask>
<g mask="url(#mask21_361_9324)">
<path d="M257.034 52.9496C256.238 52.0613 256.33 50.6831 257.239 49.8688C258.147 49.0556 259.527 49.1159 260.322 50.0041C261.118 50.8924 261.026 52.2707 260.118 53.0839C259.209 53.8982 257.829 53.8379 257.034 52.9496Z" fill="#D6DFF0"/>
</g>
<mask id="mask22_361_9324" style="mask-type:luminance" maskUnits="userSpaceOnUse" x="257" y="5" width="100" height="99">
<path d="M339.777 90.7205C319.245 109.108 288.077 107.797 270.16 87.7913C252.243 67.7857 254.363 36.6616 274.894 18.2739C295.426 -0.113881 326.593 1.19866 344.51 21.2042C362.427 41.2098 360.308 72.3328 339.777 90.7205Z" fill="white"/>
</mask>
<g mask="url(#mask22_361_9324)">
<path d="M357.046 61.9147C356.251 61.0264 356.341 59.6469 357.251 58.8327C358.159 58.0194 359.54 58.0809 360.335 58.9692C361.129 59.8551 361.038 61.2346 360.13 62.0478C359.221 62.8621 357.84 62.8006 357.046 61.9147Z" fill="#D6DFF0"/>
</g>
<mask id="mask23_361_9324" style="mask-type:luminance" maskUnits="userSpaceOnUse" x="257" y="5" width="100" height="99">
<path d="M339.777 90.7205C319.245 109.108 288.077 107.797 270.16 87.7913C252.243 67.7857 254.363 36.6616 274.894 18.2739C295.426 -0.113881 326.593 1.19866 344.51 21.2042C362.427 41.2098 360.308 72.3328 339.777 90.7205Z" fill="white"/>
</mask>
<g mask="url(#mask23_361_9324)">
<path d="M340.721 43.687C339.927 42.7999 340.018 41.4216 340.928 40.6073C341.836 39.7941 343.216 39.8544 344.01 40.7415C344.806 41.6298 344.714 43.0081 343.806 43.8213C342.897 44.6356 341.517 44.5752 340.721 43.687Z" fill="#D6DFF0"/>
</g>
<mask id="mask24_361_9324" style="mask-type:luminance" maskUnits="userSpaceOnUse" x="257" y="5" width="100" height="99">
<path d="M339.777 90.7205C319.245 109.108 288.077 107.797 270.16 87.7913C252.243 67.7857 254.363 36.6616 274.894 18.2739C295.426 -0.113881 326.593 1.19866 344.51 21.2042C362.427 41.2098 360.308 72.3328 339.777 90.7205Z" fill="white"/>
</mask>
<g mask="url(#mask24_361_9324)">
<path d="M336.687 80.1483C335.891 79.26 335.984 77.8784 336.892 77.0652C337.8 76.252 339.182 76.3135 339.977 77.2018C340.77 78.0877 340.68 79.4671 339.772 80.2804C338.864 81.0936 337.48 81.0342 336.687 80.1483Z" fill="#D6DFF0"/>
</g>
<mask id="mask25_361_9324" style="mask-type:luminance" maskUnits="userSpaceOnUse" x="257" y="5" width="100" height="99">
<path d="M339.777 90.7205C319.245 109.108 288.077 107.797 270.16 87.7913C252.243 67.7857 254.363 36.6616 274.894 18.2739C295.426 -0.113881 326.593 1.19866 344.51 21.2042C362.427 41.2098 360.308 72.3328 339.777 90.7205Z" fill="white"/>
</mask>
<g mask="url(#mask25_361_9324)">
<path d="M320.362 61.9206C319.567 61.0335 319.661 59.6531 320.569 58.8399C321.477 58.0267 322.857 58.087 323.652 58.9741C324.447 59.8624 324.356 61.2407 323.448 62.0539C322.54 62.8671 321.157 62.8089 320.362 61.9206Z" fill="#D6DFF0"/>
</g>
<mask id="mask26_361_9324" style="mask-type:luminance" maskUnits="userSpaceOnUse" x="257" y="5" width="100" height="99">
<path d="M339.777 90.7205C319.245 109.108 288.077 107.797 270.16 87.7913C252.243 67.7857 254.363 36.6616 274.894 18.2739C295.426 -0.113881 326.593 1.19866 344.51 21.2042C362.427 41.2098 360.308 72.3328 339.777 90.7205Z" fill="white"/>
</mask>
<g mask="url(#mask26_361_9324)">
<path d="M304.039 43.6948C303.245 42.8077 303.339 41.4272 304.247 40.614C305.155 39.8008 306.535 39.8612 307.329 40.7483C308.125 41.6366 308.033 43.0148 307.125 43.828C306.217 44.6412 304.835 44.5831 304.039 43.6948Z" fill="#D6DFF0"/>
</g>
<mask id="mask27_361_9324" style="mask-type:luminance" maskUnits="userSpaceOnUse" x="252" y="-4" width="117" height="117">
<path d="M348.474 97.1078C324.323 118.738 287.658 117.195 266.582 93.662C245.506 70.1289 247.999 33.5167 272.151 11.8867C296.303 -9.74334 332.966 -8.19936 354.042 15.3338C375.118 38.8669 372.626 75.4777 348.474 97.1078Z" fill="white"/>
</mask>
<g mask="url(#mask27_361_9324)">
<path d="M320.894 106.117C319.958 105.072 320.065 103.449 321.133 102.493C322.202 101.535 323.828 101.606 324.764 102.651C325.697 103.693 325.589 105.317 324.52 106.275C323.452 107.232 321.827 107.159 320.894 106.117Z" fill="#D6DFF0"/>
</g>
<mask id="mask28_361_9324" style="mask-type:luminance" maskUnits="userSpaceOnUse" x="257" y="5" width="100" height="99">
<path d="M339.777 90.7205C319.245 109.108 288.077 107.797 270.16 87.7913C252.243 67.7857 254.363 36.6616 274.894 18.2739C295.426 -0.113881 326.593 1.19866 344.51 21.2042C362.427 41.2098 360.308 72.3328 339.777 90.7205Z" fill="white"/>
</mask>
<g mask="url(#mask28_361_9324)">
<path d="M300.006 80.1522C299.211 79.2651 299.303 77.8868 300.211 77.0736C301.12 76.2593 302.501 76.3186 303.296 77.2057C304.091 78.0939 303.998 79.4733 303.089 80.2876C302.181 81.1008 300.801 81.0405 300.006 80.1522Z" fill="#D6DFF0"/>
</g>
<mask id="mask29_361_9324" style="mask-type:luminance" maskUnits="userSpaceOnUse" x="257" y="5" width="100" height="99">
<path d="M339.777 90.7205C319.245 109.108 288.077 107.797 270.16 87.7913C252.243 67.7857 254.363 36.6616 274.894 18.2739C295.426 -0.113881 326.593 1.19866 344.51 21.2042C362.427 41.2098 360.308 72.3328 339.777 90.7205Z" fill="white"/>
</mask>
<g mask="url(#mask29_361_9324)">
<path d="M283.683 61.9265C282.889 61.0394 282.98 59.6611 283.888 58.8479C284.797 58.0336 286.179 58.0929 286.973 58.98C287.769 59.8683 287.676 61.2476 286.766 62.0619C285.858 62.8751 284.479 62.8148 283.683 61.9265Z" fill="#D6DFF0"/>
</g>
<mask id="mask30_361_9324" style="mask-type:luminance" maskUnits="userSpaceOnUse" x="257" y="5" width="100" height="99">
<path d="M339.777 90.7205C319.245 109.108 288.077 107.797 270.16 87.7913C252.243 67.7857 254.363 36.6616 274.894 18.2739C295.426 -0.113881 326.593 1.19866 344.51 21.2042C362.427 41.2098 360.308 72.3328 339.777 90.7205Z" fill="white"/>
</mask>
<g mask="url(#mask30_361_9324)">
<path d="M267.36 43.7006C266.565 42.8123 266.656 41.4341 267.564 40.6208C268.474 39.8066 269.855 39.8658 270.65 40.754C271.446 41.6423 271.353 43.0217 270.444 43.836C269.536 44.6492 268.156 44.5888 267.36 43.7006Z" fill="#D6DFF0"/>
</g>
<mask id="mask31_361_9324" style="mask-type:luminance" maskUnits="userSpaceOnUse" x="257" y="5" width="100" height="99">
<path d="M339.777 90.7205C319.245 109.108 288.077 107.797 270.16 87.7913C252.243 67.7857 254.363 36.6616 274.894 18.2739C295.426 -0.113881 326.593 1.19866 344.51 21.2042C362.427 41.2098 360.308 72.3328 339.777 90.7205Z" fill="white"/>
</mask>
<g mask="url(#mask31_361_9324)">
</g>
<mask id="mask32_361_9324" style="mask-type:luminance" maskUnits="userSpaceOnUse" x="252" y="-4" width="117" height="117">
<path d="M348.474 97.1078C324.323 118.738 287.658 117.195 266.582 93.662C245.506 70.1289 247.999 33.5167 272.151 11.8867C296.303 -9.74334 332.966 -8.19936 354.042 15.3338C375.118 38.8669 372.626 75.4777 348.474 97.1078Z" fill="white"/>
</mask>
<g mask="url(#mask32_361_9324)">
<path d="M277.742 106.124C276.808 105.08 276.915 103.459 277.984 102.502C279.054 101.544 280.677 101.615 281.611 102.658C282.547 103.703 282.44 105.325 281.37 106.283C280.301 107.24 278.678 107.168 277.742 106.124Z" fill="#D6DFF0"/>
</g>
<mask id="mask33_361_9324" style="mask-type:luminance" maskUnits="userSpaceOnUse" x="257" y="5" width="100" height="99">
<path d="M339.777 90.7205C319.245 109.108 288.077 107.797 270.16 87.7913C252.243 67.7857 254.363 36.6616 274.894 18.2739C295.426 -0.113881 326.593 1.19866 344.51 21.2042C362.427 41.2098 360.308 72.3328 339.777 90.7205Z" fill="white"/>
</mask>
<g mask="url(#mask33_361_9324)">
<path d="M263.325 80.1593C262.53 79.2722 262.622 77.894 263.53 77.0805C264.44 76.2661 265.82 76.3266 266.614 77.2137C267.41 78.1019 267.318 79.4801 266.409 80.2945C265.5 81.108 264.12 81.0476 263.325 80.1593Z" fill="#D6DFF0"/>
</g>
<mask id="mask34_361_9324" style="mask-type:luminance" maskUnits="userSpaceOnUse" x="257" y="5" width="100" height="99">
<path d="M339.777 90.7205C319.245 109.108 288.077 107.797 270.16 87.7913C252.243 67.7857 254.363 36.6616 274.894 18.2739C295.426 -0.113881 326.593 1.19866 344.51 21.2042C362.427 41.2098 360.308 72.3328 339.777 90.7205Z" fill="white"/>
</mask>
<g mask="url(#mask34_361_9324)">
</g>
<mask id="mask35_361_9324" style="mask-type:luminance" maskUnits="userSpaceOnUse" x="257" y="5" width="100" height="99">
<path d="M339.777 90.7205C319.245 109.108 288.077 107.797 270.16 87.7913C252.243 67.7857 254.363 36.6616 274.894 18.2739C295.426 -0.113881 326.593 1.19866 344.51 21.2042C362.427 41.2098 360.308 72.3328 339.777 90.7205Z" fill="white"/>
</mask>
<g mask="url(#mask35_361_9324)">
</g>
<mask id="mask36_361_9324" style="mask-type:luminance" maskUnits="userSpaceOnUse" x="257" y="5" width="100" height="99">
<path d="M339.777 90.7205C319.245 109.108 288.077 107.797 270.16 87.7913C252.243 67.7857 254.363 36.6616 274.894 18.2739C295.426 -0.113881 326.593 1.19866 344.51 21.2042C362.427 41.2098 360.308 72.3328 339.777 90.7205Z" fill="white"/>
</mask>
<g mask="url(#mask36_361_9324)">
<path d="M338.876 62.4029C338.081 61.5158 338.173 60.1375 339.081 59.3243C339.99 58.51 341.369 58.5714 342.163 59.4585C342.958 60.3456 342.869 61.7241 341.959 62.5383C341.051 63.3515 339.67 63.29 338.876 62.4029Z" fill="#D6DFF0"/>
</g>
<mask id="mask37_361_9324" style="mask-type:luminance" maskUnits="userSpaceOnUse" x="257" y="5" width="100" height="99">
<path d="M339.777 90.7205C319.245 109.108 288.077 107.797 270.16 87.7913C252.243 67.7857 254.363 36.6616 274.894 18.2739C295.426 -0.113881 326.593 1.19866 344.51 21.2042C362.427 41.2098 360.308 72.3328 339.777 90.7205Z" fill="white"/>
</mask>
<g mask="url(#mask37_361_9324)">
<path d="M322.552 44.176C321.759 43.2901 321.849 41.9106 322.757 41.0974C323.666 40.2831 325.046 40.3457 325.84 41.2316C326.635 42.1199 326.546 43.4983 325.637 44.3126C324.729 45.1258 323.347 45.0643 322.552 44.176Z" fill="#D6DFF0"/>
</g>
<mask id="mask38_361_9324" style="mask-type:luminance" maskUnits="userSpaceOnUse" x="257" y="5" width="100" height="99">
<path d="M339.777 90.7205C319.245 109.108 288.077 107.797 270.16 87.7913C252.243 67.7857 254.363 36.6616 274.894 18.2739C295.426 -0.113881 326.593 1.19866 344.51 21.2042C362.427 41.2098 360.308 72.3328 339.777 90.7205Z" fill="white"/>
</mask>
<g mask="url(#mask38_361_9324)">
<path d="M318.517 80.6366C317.723 79.7494 317.816 78.3701 318.722 77.558C319.632 76.7437 321.013 76.8029 321.807 77.69C322.602 78.5771 322.51 79.9577 321.601 80.772C320.694 81.5841 319.312 81.5237 318.517 80.6366Z" fill="#D6DFF0"/>
</g>
<mask id="mask39_361_9324" style="mask-type:luminance" maskUnits="userSpaceOnUse" x="257" y="5" width="100" height="99">
<path d="M339.777 90.7205C319.245 109.108 288.077 107.797 270.16 87.7913C252.243 67.7857 254.363 36.6616 274.894 18.2739C295.426 -0.113881 326.593 1.19866 344.51 21.2042C362.427 41.2098 360.308 72.3328 339.777 90.7205Z" fill="white"/>
</mask>
<g mask="url(#mask39_361_9324)">
<path d="M302.193 62.4096C301.4 61.5237 301.492 60.1432 302.399 59.331C303.308 58.5168 304.69 58.5772 305.483 59.4631C306.279 60.3514 306.187 61.7319 305.278 62.5462C304.371 63.3583 302.989 63.2979 302.193 62.4096Z" fill="#D6DFF0"/>
</g>
<mask id="mask40_361_9324" style="mask-type:luminance" maskUnits="userSpaceOnUse" x="257" y="5" width="100" height="99">
<path d="M339.777 90.7205C319.245 109.108 288.077 107.797 270.16 87.7913C252.243 67.7857 254.363 36.6616 274.894 18.2739C295.426 -0.113881 326.593 1.19866 344.51 21.2042C362.427 41.2098 360.308 72.3328 339.777 90.7205Z" fill="white"/>
</mask>
<g mask="url(#mask40_361_9324)">
<path d="M285.87 44.1843C285.075 43.296 285.168 41.9166 286.074 41.1045C286.984 40.2902 288.365 40.3495 289.16 41.2377C289.956 42.126 289.863 43.5053 288.954 44.3196C288.047 45.1317 286.666 45.0725 285.87 44.1843Z" fill="#D6DFF0"/>
</g>
<mask id="mask41_361_9324" style="mask-type:luminance" maskUnits="userSpaceOnUse" x="252" y="-4" width="117" height="117">
<path d="M348.474 97.1078C324.323 118.738 287.658 117.195 266.582 93.662C245.506 70.1289 247.999 33.5167 272.151 11.8867C296.303 -9.74334 332.966 -8.19936 354.042 15.3338C375.118 38.8669 372.626 75.4777 348.474 97.1078Z" fill="white"/>
</mask>
<g mask="url(#mask41_361_9324)">
<path d="M299.518 106.693C298.584 105.649 298.691 104.028 299.761 103.07C300.829 102.113 302.452 102.184 303.387 103.228C304.322 104.271 304.215 105.894 303.147 106.851C302.077 107.809 300.453 107.736 299.518 106.693Z" fill="#D6DFF0"/>
</g>
<mask id="mask42_361_9324" style="mask-type:luminance" maskUnits="userSpaceOnUse" x="257" y="5" width="100" height="99">
<path d="M339.777 90.7205C319.245 109.108 288.077 107.797 270.16 87.7913C252.243 67.7857 254.363 36.6616 274.894 18.2739C295.426 -0.113881 326.593 1.19866 344.51 21.2042C362.427 41.2098 360.308 72.3328 339.777 90.7205Z" fill="white"/>
</mask>
<g mask="url(#mask42_361_9324)">
<path d="M281.835 80.6424C281.042 79.7565 281.132 78.377 282.041 77.5628C282.949 76.7495 284.33 76.811 285.124 77.697C285.919 78.5852 285.829 79.9647 284.921 80.7779C284.012 81.5922 282.631 81.5307 281.835 80.6424Z" fill="#D6DFF0"/>
</g>
<mask id="mask43_361_9324" style="mask-type:luminance" maskUnits="userSpaceOnUse" x="257" y="5" width="100" height="99">
<path d="M339.777 90.7205C319.245 109.108 288.077 107.797 270.16 87.7913C252.243 67.7857 254.363 36.6616 274.894 18.2739C295.426 -0.113881 326.593 1.19866 344.51 21.2042C362.427 41.2098 360.308 72.3328 339.777 90.7205Z" fill="white"/>
</mask>
<g mask="url(#mask43_361_9324)">
<path d="M265.512 62.4171C264.717 61.5288 264.808 60.1505 265.718 59.3362C266.626 58.523 268.006 58.5833 268.801 59.4716C269.597 60.3599 269.505 61.7381 268.597 62.5513C267.688 63.3656 266.308 63.3053 265.512 62.4171Z" fill="#D6DFF0"/>
</g>
<mask id="mask44_361_9324" style="mask-type:luminance" maskUnits="userSpaceOnUse" x="257" y="5" width="100" height="99">
<path d="M339.777 90.7205C319.245 109.108 288.077 107.797 270.16 87.7913C252.243 67.7857 254.363 36.6616 274.894 18.2739C295.426 -0.113881 326.593 1.19866 344.51 21.2042C362.427 41.2098 360.308 72.3328 339.777 90.7205Z" fill="white"/>
</mask>
<g mask="url(#mask44_361_9324)">
</g>
<mask id="mask45_361_9324" style="mask-type:luminance" maskUnits="userSpaceOnUse" x="257" y="5" width="100" height="99">
<path d="M339.777 90.7205C319.245 109.108 288.077 107.797 270.16 87.7913C252.243 67.7857 254.363 36.6616 274.894 18.2739C295.426 -0.113881 326.593 1.19866 344.51 21.2042C362.427 41.2098 360.308 72.3328 339.777 90.7205Z" fill="white"/>
</mask>
<g mask="url(#mask45_361_9324)">
<path d="M349.201 53.1556C348.407 52.2685 348.499 50.8902 349.408 50.0759C350.316 49.2627 351.696 49.3231 352.49 50.2102C353.285 51.0973 353.194 52.4767 352.286 53.2899C351.377 54.1042 349.996 54.0427 349.201 53.1556Z" fill="#D6DFF0"/>
</g>
<mask id="mask46_361_9324" style="mask-type:luminance" maskUnits="userSpaceOnUse" x="257" y="5" width="100" height="99">
<path d="M339.777 90.7205C319.245 109.108 288.077 107.797 270.16 87.7913C252.243 67.7857 254.363 36.6616 274.894 18.2739C295.426 -0.113881 326.593 1.19866 344.51 21.2042C362.427 41.2098 360.308 72.3328 339.777 90.7205Z" fill="white"/>
</mask>
<g mask="url(#mask46_361_9324)">
</g>
<mask id="mask47_361_9324" style="mask-type:luminance" maskUnits="userSpaceOnUse" x="257" y="5" width="100" height="99">
<path d="M339.777 90.7205C319.245 109.108 288.077 107.797 270.16 87.7913C252.243 67.7857 254.363 36.6616 274.894 18.2739C295.426 -0.113881 326.593 1.19866 344.51 21.2042C362.427 41.2098 360.308 72.3328 339.777 90.7205Z" fill="white"/>
</mask>
<g mask="url(#mask47_361_9324)">
<path d="M328.842 71.3892C328.048 70.5021 328.142 69.1217 329.05 68.3085C329.958 67.4953 331.338 67.5556 332.132 68.4427C332.927 69.3298 332.836 70.7093 331.928 71.5225C331.02 72.3357 329.637 72.2763 328.842 71.3892Z" fill="#D6DFF0"/>
</g>
<mask id="mask48_361_9324" style="mask-type:luminance" maskUnits="userSpaceOnUse" x="257" y="5" width="100" height="99">
<path d="M339.777 90.7205C319.245 109.108 288.077 107.797 270.16 87.7913C252.243 67.7857 254.363 36.6616 274.894 18.2739C295.426 -0.113881 326.593 1.19866 344.51 21.2042C362.427 41.2098 360.308 72.3328 339.777 90.7205Z" fill="white"/>
</mask>
<g mask="url(#mask48_361_9324)">
<path d="M312.518 53.1622C311.725 52.2763 311.818 50.8946 312.726 50.0814C313.634 49.2682 315.015 49.3297 315.808 50.2157C316.604 51.1039 316.513 52.4834 315.605 53.2966C314.697 54.1098 313.314 54.0505 312.518 53.1622Z" fill="#D6DFF0"/>
</g>
<mask id="mask49_361_9324" style="mask-type:luminance" maskUnits="userSpaceOnUse" x="257" y="5" width="100" height="99">
<path d="M339.777 90.7205C319.245 109.108 288.077 107.797 270.16 87.7913C252.243 67.7857 254.363 36.6616 274.894 18.2739C295.426 -0.113881 326.593 1.19866 344.51 21.2042C362.427 41.2098 360.308 72.3328 339.777 90.7205Z" fill="white"/>
</mask>
<g mask="url(#mask49_361_9324)">
<path d="M308.486 89.6203C307.691 88.7332 307.783 87.3549 308.691 86.5417C309.6 85.7275 310.981 85.7867 311.776 86.6738C312.57 87.5609 312.479 88.9415 311.569 89.7557C310.661 90.5689 309.28 90.5074 308.486 89.6203Z" fill="#D6DFF0"/>
</g>
<mask id="mask50_361_9324" style="mask-type:luminance" maskUnits="userSpaceOnUse" x="257" y="5" width="100" height="99">
<path d="M339.777 90.7205C319.245 109.108 288.077 107.797 270.16 87.7913C252.243 67.7857 254.363 36.6616 274.894 18.2739C295.426 -0.113881 326.593 1.19866 344.51 21.2042C362.427 41.2098 360.308 72.3328 339.777 90.7205Z" fill="white"/>
</mask>
<g mask="url(#mask50_361_9324)">
<path d="M292.162 71.3934C291.369 70.5075 291.459 69.128 292.367 68.3148C293.276 67.5005 294.659 67.5609 295.452 68.4469C296.248 69.3351 296.156 70.7157 295.247 71.53C294.339 72.3432 292.958 72.2817 292.162 71.3934Z" fill="#D6DFF0"/>
</g>
<mask id="mask51_361_9324" style="mask-type:luminance" maskUnits="userSpaceOnUse" x="257" y="5" width="100" height="99">
<path d="M339.777 90.7205C319.245 109.108 288.077 107.797 270.16 87.7913C252.243 67.7857 254.363 36.6616 274.894 18.2739C295.426 -0.113881 326.593 1.19866 344.51 21.2042C362.427 41.2098 360.308 72.3328 339.777 90.7205Z" fill="white"/>
</mask>
<g mask="url(#mask51_361_9324)">
<path d="M275.839 53.1684C275.043 52.2801 275.135 50.9018 276.043 50.0886C276.952 49.2743 278.333 49.3336 279.129 50.2219C279.924 51.1101 279.832 52.4895 278.922 53.3038C278.014 54.117 276.634 54.0567 275.839 53.1684Z" fill="#D6DFF0"/>
</g>
<mask id="mask52_361_9324" style="mask-type:luminance" maskUnits="userSpaceOnUse" x="257" y="5" width="100" height="99">
<path d="M339.777 90.7205C319.245 109.108 288.077 107.797 270.16 87.7913C252.243 67.7857 254.363 36.6616 274.894 18.2739C295.426 -0.113881 326.593 1.19866 344.51 21.2042C362.427 41.2098 360.308 72.3328 339.777 90.7205Z" fill="white"/>
</mask>
<g mask="url(#mask52_361_9324)">
<path d="M288.127 107.853C287.332 106.966 287.424 105.588 288.332 104.774C289.242 103.96 290.622 104.02 291.416 104.907C292.21 105.795 292.12 107.174 291.211 107.988C290.302 108.802 288.921 108.74 288.127 107.853Z" fill="#D6DFF0"/>
</g>
<mask id="mask53_361_9324" style="mask-type:luminance" maskUnits="userSpaceOnUse" x="257" y="5" width="100" height="99">
<path d="M339.777 90.7205C319.245 109.108 288.077 107.797 270.16 87.7913C252.243 67.7857 254.363 36.6616 274.894 18.2739C295.426 -0.113881 326.593 1.19866 344.51 21.2042C362.427 41.2098 360.308 72.3328 339.777 90.7205Z" fill="white"/>
</mask>
<g mask="url(#mask53_361_9324)">
<path d="M271.803 89.6262C271.01 88.7402 271.1 87.3609 272.009 86.5474C272.918 85.733 274.299 85.7946 275.092 86.6805C275.888 87.5688 275.797 88.9481 274.888 89.7625C273.98 90.5761 272.599 90.5145 271.803 89.6262Z" fill="#D6DFF0"/>
</g>
<mask id="mask54_361_9324" style="mask-type:luminance" maskUnits="userSpaceOnUse" x="280" y="27" width="55" height="55">
<path d="M324.917 74.1292C313.79 84.0944 296.898 83.3837 287.188 72.5417C277.478 61.6997 278.627 44.832 289.754 34.8668C300.881 24.9016 317.772 25.613 327.482 36.4549C337.192 47.2969 336.044 64.164 324.917 74.1292Z" fill="white"/>
</mask>
<g mask="url(#mask54_361_9324)">
<path d="M279.233 63.6585C278.802 63.1771 278.852 62.4302 279.344 61.9893C279.837 61.5479 280.585 61.5807 281.016 62.0621C281.447 62.5435 281.397 63.2904 280.904 63.7317C280.412 64.1726 279.664 64.1399 279.233 63.6585Z" fill="#D6DFF0"/>
</g>
<mask id="mask55_361_9324" style="mask-type:luminance" maskUnits="userSpaceOnUse" x="288" y="36" width="38" height="37">
<path d="M319.53 68.1125C311.813 75.0239 300.097 74.531 293.363 67.0115C286.629 59.4921 287.426 47.7935 295.143 40.8822C302.86 33.9708 314.575 34.4642 321.309 41.9836C328.043 49.5031 327.247 61.2012 319.53 68.1125Z" fill="white"/>
</mask>
<g mask="url(#mask55_361_9324)">
</g>
<path d="M42.7891 278.504C42.4906 282.868 38.7067 286.257 34.3388 286.072C29.968 285.889 26.6674 282.204 26.966 277.839C27.2619 273.478 31.0458 270.089 35.4164 270.271C39.7843 270.456 43.085 274.142 42.7891 278.504Z" fill="#CCD7EC"/>
<path d="M57.4158 294.836C57.1185 299.201 53.3346 302.59 48.9654 302.404C44.5959 302.223 41.294 298.536 41.5939 294.173C41.8885 289.81 45.6724 286.421 50.0443 286.605C54.4109 286.789 57.7129 290.475 57.4158 294.836Z" fill="#CCD7EC"/>
<path d="M72.0439 311.17C71.7466 315.536 67.9627 318.925 63.5936 318.738C59.2228 318.556 55.9222 314.87 56.2209 310.506C56.5168 306.144 60.3007 302.755 64.6713 302.938C69.0392 303.123 72.3398 306.808 72.0439 311.17Z" fill="#CCD7EC"/>
<path d="M86.6718 327.503C86.3733 331.867 82.5894 335.256 78.2215 335.071C73.8507 334.889 70.5501 331.203 70.8488 326.839C71.1434 322.476 74.9273 319.087 79.2991 319.271C83.667 319.456 86.9677 323.141 86.6718 327.503Z" fill="#CCD7EC"/>
<path d="M35.632 298.9C35.3359 303.264 31.5525 306.653 27.1834 306.466C22.8139 306.285 19.5121 302.598 19.8107 298.234C20.1066 293.872 23.8899 290.484 28.2594 290.668C32.6284 290.851 35.9303 294.538 35.632 298.9Z" fill="#CCD7EC"/>
<path d="M50.2605 315.234C49.9631 319.597 46.1797 322.986 41.8118 322.801C37.4411 322.618 34.1405 318.933 34.4391 314.569C34.7337 310.205 38.5171 306.817 42.8878 307.002C47.2568 307.186 50.5575 310.871 50.2605 315.234Z" fill="#CCD7EC"/>
<path d="M64.8874 331.567C64.59 335.931 60.8066 339.319 56.4388 339.134C52.0681 338.951 48.7662 335.264 49.066 330.902C49.3606 326.538 53.144 323.15 57.5147 323.335C61.8825 323.518 65.1844 327.205 64.8874 331.567Z" fill="#CCD7EC"/>
<path d="M29.0995 319.325C28.8029 323.685 25.0191 327.073 20.6507 326.891C16.2805 326.706 12.9798 323.02 13.2768 318.658C13.5743 314.294 17.3581 310.905 21.7255 311.091C26.0961 311.273 29.3969 314.959 29.0995 319.325Z" fill="#CCD7EC"/>
<path d="M43.7259 335.657C43.4306 340.018 39.6467 343.407 35.2772 343.223C30.907 343.038 27.6075 339.354 27.9033 334.99C28.202 330.628 31.9859 327.239 36.352 327.423C40.7239 327.607 44.0233 331.291 43.7259 335.657Z" fill="#CCD7EC"/>
<path d="M355.501 252.504L357.171 228.515L334.409 227.592L335.961 205.288L314.044 204.398L315.99 176.416L324.808 176.801L323.473 195.952L345.391 196.843L343.839 219.147L366.601 220.07L364.932 244.057L389.8 245.065L388.13 269.054L407.733 269.849L407.146 278.656L378.701 277.499L380.367 253.513L355.501 252.504Z" stroke="#D6DFF0" stroke-width="1.31756" stroke-miterlimit="10"/>
<path d="M657.251 182.172L659.043 156.441L634.628 155.449L636.295 131.528L612.786 130.573L614.876 100.56L624.331 100.973L622.902 121.513L646.411 122.468L644.744 146.39L669.158 147.382L667.368 173.111L694.04 174.193L692.252 199.92L713.277 200.776L712.647 210.22L682.134 208.981L683.925 183.252L657.251 182.172Z" fill="#E6E9FA"/>
<path d="M630.66 248.261C629.718 247.21 629.826 245.575 630.902 244.611C631.979 243.646 633.617 243.718 634.559 244.769C635.501 245.82 635.392 247.457 634.315 248.421C633.238 249.385 631.601 249.313 630.66 248.261Z" fill="#D6DFF0"/>
<path d="M611.313 226.657C610.37 225.605 610.478 223.97 611.554 223.005C612.631 222.041 614.269 222.112 615.212 223.165C616.152 224.215 616.043 225.852 614.967 226.816C613.89 227.78 612.253 227.708 611.313 226.657Z" fill="#D6DFF0"/>
<path d="M606.528 269.874C605.587 268.823 605.694 267.188 606.771 266.223C607.848 265.259 609.485 265.332 610.426 266.383C611.368 267.434 611.26 269.07 610.183 270.034C609.107 270.998 607.47 270.925 606.528 269.874Z" fill="#D6DFF0"/>
<path d="M587.181 248.27C586.238 247.218 586.346 245.582 587.422 244.618C588.499 243.654 590.136 243.726 591.079 244.779C592.019 245.829 591.911 247.464 590.835 248.428C589.758 249.393 588.121 249.32 587.181 248.27Z" fill="#D6DFF0"/>
<path d="M582.396 291.485C581.455 290.434 581.562 288.799 582.639 287.835C583.716 286.871 585.353 286.943 586.294 287.994C587.236 289.046 587.128 290.681 586.052 291.645C584.975 292.609 583.338 292.537 582.396 291.485Z" fill="#D6DFF0"/>
<path d="M563.049 269.882C562.106 268.83 562.214 267.195 563.29 266.23C564.367 265.266 566.004 265.339 566.947 266.391C567.887 267.441 567.779 269.077 566.703 270.041C565.626 271.005 563.989 270.933 563.049 269.882Z" fill="#D6DFF0"/>
<path d="M560.936 328.407C559.851 327.196 559.975 325.311 561.217 324.198C562.458 323.087 564.346 323.17 565.431 324.382C566.516 325.594 566.392 327.479 565.151 328.59C563.909 329.703 562.021 329.619 560.936 328.407Z" fill="#D6DFF0"/>
<path d="M538.916 291.495C537.973 290.443 538.081 288.807 539.159 287.842C540.236 286.878 541.873 286.95 542.815 288.003C543.756 289.053 543.648 290.688 542.571 291.652C541.494 292.618 539.856 292.545 538.916 291.495Z" fill="#D6DFF0"/>
<path d="M618.767 258.912C617.826 257.861 617.935 256.225 619.012 255.26C620.088 254.296 621.725 254.369 622.667 255.42C623.609 256.471 623.501 258.107 622.424 259.071C621.348 260.035 619.709 259.964 618.767 258.912Z" fill="#D6DFF0"/>
<path d="M599.419 237.308C598.477 236.256 598.586 234.619 599.662 233.655C600.739 232.691 602.376 232.763 603.319 233.816C604.259 234.866 604.152 236.501 603.075 237.465C601.998 238.43 600.36 238.358 599.419 237.308Z" fill="#D6DFF0"/>
<path d="M594.636 280.524C593.695 279.472 593.803 277.837 594.879 276.873C595.956 275.909 597.594 275.98 598.536 277.031C599.477 278.083 599.368 279.719 598.292 280.683C597.215 281.648 595.578 281.575 594.636 280.524Z" fill="#D6DFF0"/>
<path d="M575.289 258.92C574.347 257.868 574.455 256.232 575.531 255.268C576.608 254.304 578.246 254.375 579.189 255.428C580.129 256.478 580.02 258.114 578.944 259.079C577.867 260.043 576.23 259.97 575.289 258.92Z" fill="#D6DFF0"/>
<path d="M570.504 302.137C569.562 301.085 569.672 299.449 570.748 298.485C571.825 297.521 573.462 297.593 574.403 298.645C575.345 299.696 575.237 301.331 574.161 302.295C573.084 303.259 571.446 303.188 570.504 302.137Z" fill="#D6DFF0"/>
<path d="M551.157 280.533C550.214 279.48 550.323 277.844 551.4 276.88C552.477 275.916 554.114 275.988 555.056 277.041C555.997 278.091 555.889 279.726 554.813 280.69C553.736 281.654 552.098 281.583 551.157 280.533Z" fill="#D6DFF0"/>
<path d="M547.229 340.683C546.144 339.471 546.268 337.587 547.509 336.475C548.75 335.364 550.637 335.447 551.722 336.659C552.808 337.871 552.683 339.756 551.443 340.867C550.202 341.979 548.314 341.895 547.229 340.683Z" fill="#D6DFF0"/>
<path d="M527.024 302.145C526.082 301.092 526.19 299.457 527.266 298.493C528.343 297.529 529.98 297.601 530.923 298.654C531.863 299.704 531.755 301.339 530.679 302.303C529.602 303.267 527.965 303.195 527.024 302.145Z" fill="#D6DFF0"/>
<path d="M621.362 237.879C620.42 236.828 620.528 235.192 621.604 234.228C622.681 233.264 624.319 233.335 625.261 234.387C626.204 235.439 626.092 237.073 625.016 238.037C623.939 239.002 622.304 238.932 621.362 237.879Z" fill="#D6DFF0"/>
<path d="M602.013 216.275C601.071 215.224 601.179 213.588 602.256 212.624C603.332 211.66 604.971 211.731 605.912 212.783C606.855 213.835 606.745 215.47 605.668 216.435C604.592 217.399 602.956 217.328 602.013 216.275Z" fill="#D6DFF0"/>
<path d="M597.23 259.491C596.288 258.44 596.396 256.804 597.473 255.84C598.549 254.876 600.186 254.948 601.128 256C602.071 257.052 601.961 258.685 600.884 259.649C599.807 260.613 598.172 260.543 597.23 259.491Z" fill="#D6DFF0"/>
<path d="M577.882 237.887C576.94 236.835 577.048 235.2 578.124 234.236C579.201 233.272 580.838 233.344 581.78 234.395C582.722 235.448 582.613 237.082 581.537 238.046C580.46 239.01 578.824 238.939 577.882 237.887Z" fill="#D6DFF0"/>
<path d="M573.098 281.104C572.156 280.052 572.264 278.417 573.341 277.453C574.417 276.489 576.054 276.561 576.996 277.612C577.939 278.665 577.829 280.298 576.752 281.262C575.676 282.226 574.041 282.156 573.098 281.104Z" fill="#D6DFF0"/>
<path d="M553.749 259.499C552.808 258.448 552.916 256.812 553.992 255.848C555.069 254.884 556.706 254.956 557.647 256.008C558.59 257.06 558.481 258.694 557.405 259.658C556.328 260.623 554.692 260.552 553.749 259.499Z" fill="#D6DFF0"/>
<path d="M548.965 302.716C548.024 301.665 548.131 300.029 549.209 299.064C550.286 298.1 551.923 298.172 552.865 299.224C553.807 300.276 553.697 301.909 552.621 302.873C551.543 303.838 549.908 303.769 548.965 302.716Z" fill="#D6DFF0"/>
<path d="M529.617 281.112C528.675 280.061 528.783 278.426 529.861 277.46C530.937 276.496 532.574 276.569 533.516 277.62C534.459 278.672 534.35 280.306 533.273 281.271C532.195 282.236 530.559 282.165 529.617 281.112Z" fill="#D6DFF0"/>
<path d="M609.469 248.53C608.527 247.479 608.636 245.843 609.713 244.879C610.789 243.914 612.427 243.987 613.368 245.038C614.311 246.091 614.201 247.724 613.124 248.688C612.048 249.652 610.411 249.583 609.469 248.53Z" fill="#D6DFF0"/>
<path d="M590.121 226.925C589.179 225.874 589.288 224.237 590.365 223.273C591.441 222.309 593.078 222.382 594.02 223.433C594.963 224.485 594.854 226.119 593.777 227.084C592.701 228.048 591.063 227.978 590.121 226.925Z" fill="#D6DFF0"/>
<path d="M585.338 270.141C584.397 269.089 584.504 267.454 585.581 266.49C586.657 265.526 588.296 265.597 589.238 266.648C590.18 267.701 590.069 269.335 588.992 270.299C587.916 271.263 586.281 271.193 585.338 270.141Z" fill="#D6DFF0"/>
<path d="M565.99 248.536C565.048 247.484 565.156 245.849 566.233 244.885C567.309 243.921 568.948 243.992 569.889 245.044C570.832 246.096 570.722 247.731 569.645 248.695C568.569 249.659 566.933 249.588 565.99 248.536Z" fill="#D6DFF0"/>
<path d="M561.206 291.754C560.264 290.702 560.373 289.066 561.45 288.102C562.526 287.138 564.164 287.21 565.105 288.262C566.048 289.314 565.938 290.947 564.861 291.911C563.785 292.875 562.148 292.806 561.206 291.754Z" fill="#D6DFF0"/>
<path d="M541.857 270.149C540.916 269.098 541.025 267.462 542.101 266.497C543.178 265.533 544.815 265.606 545.757 266.657C546.699 267.71 546.59 269.344 545.514 270.308C544.437 271.272 542.8 271.202 541.857 270.149Z" fill="#D6DFF0"/>
<path d="M536.51 328.715C535.425 327.503 535.549 325.618 536.79 324.507C538.031 323.396 539.918 323.479 541.004 324.691C542.09 325.904 541.964 327.786 540.723 328.898C539.482 330.009 537.597 329.928 536.51 328.715Z" fill="#D6DFF0"/>
<path d="M517.725 291.762C516.784 290.711 516.892 289.075 517.968 288.111C519.045 287.147 520.682 287.219 521.624 288.271C522.566 289.323 522.457 290.957 521.381 291.921C520.304 292.886 518.668 292.814 517.725 291.762Z" fill="#D6DFF0"/>
<path d="M694.635 188.364L696.306 164.374L673.546 163.452L675.097 141.147L653.18 140.258L655.127 112.276L663.943 112.66L662.61 131.813L684.527 132.701L682.976 155.007L705.736 155.929L704.068 179.916L728.937 180.925L727.267 204.914L746.87 205.709L746.282 214.515L717.837 213.359L719.504 189.373L694.635 188.364Z" stroke="#E6E9FA" stroke-width="1.31756" stroke-miterlimit="10"/>
<path d="M57.8842 183.321L110.589 242.17L136.048 166.343L57.8842 183.321Z" stroke="#E6E9FA" stroke-width="3.87721" stroke-miterlimit="10"/>
<path d="M77.4141 190.829L105.271 221.933L118.726 181.855L77.4141 190.829Z" fill="#D6DFF0"/>
<path d="M510.659 150.18L474.469 182.591L516.826 193.478L510.659 150.18ZM462.922 185.47L514.789 139.02L523.624 201.069L462.922 185.47Z" fill="#E6E9FA"/>
<path d="M485.147 158.108L479.673 119.668L447.542 148.444L485.147 158.108Z" fill="#D6DFF0"/>
<path d="M548.71 229.081L544.743 201.231L521.464 222.079L548.71 229.081Z" fill="#E6E9FA"/>
<path d="M219.193 101.646L203.951 84.6265L221.418 68.9837L236.66 86.0029L219.193 101.646Z" fill="#D6DFF0"/>
<path d="M458.396 301.747C455.755 304.113 451.745 303.945 449.44 301.372C447.133 298.796 447.407 294.792 450.049 292.426C452.692 290.059 456.701 290.227 459.008 292.803C461.312 295.377 461.039 299.38 458.396 301.747Z" fill="#D6DFF0"/>
</svg>
