<svg width="72" height="71" viewBox="0 0 72 71" fill="none" xmlns="http://www.w3.org/2000/svg">
<circle cx="36" cy="35.5869" r="35.3017" fill="#576ADF" fill-opacity="0.13"/>
<g clip-path="url(#clip0_930_13517)">
<path d="M53.0999 35.586C53.0999 36.0248 52.9256 36.4457 52.6152 36.7561C52.3049 37.0664 51.884 37.2407 51.4451 37.2407H49.5973C49.2228 38.8102 48.3308 40.2079 47.065 41.2086C45.7991 42.2092 44.2333 42.7545 42.6197 42.7566H37.6554V44.963H40.4134C41.73 44.963 42.9927 45.486 43.9236 46.417C44.8546 47.348 45.3777 48.6107 45.3777 49.9273C45.3777 50.3662 45.2033 50.7871 44.893 51.0974C44.5827 51.4077 44.1618 51.5821 43.7229 51.5821C43.284 51.5821 42.8631 51.4077 42.5528 51.0974C42.2425 50.7871 42.0681 50.3662 42.0681 49.9273C42.0681 49.4884 41.8938 49.0675 41.5835 48.7572C41.2731 48.4469 40.8522 48.2725 40.4134 48.2725H37.6554V49.9273C37.6554 50.3662 37.4811 50.7871 37.1707 51.0974C36.8604 51.4077 36.4395 51.5821 36.0006 51.5821C35.5618 51.5821 35.1409 51.4077 34.8305 51.0974C34.5202 50.7871 34.3459 50.3662 34.3459 49.9273V48.2725H31.5879C31.1491 48.2725 30.7282 48.4469 30.4178 48.7572C30.1075 49.0675 29.9332 49.4884 29.9332 49.9273C29.9332 50.3662 29.7588 50.7871 29.4485 51.0974C29.1382 51.4077 28.7173 51.5821 28.2784 51.5821C27.8395 51.5821 27.4186 51.4077 27.1083 51.0974C26.798 50.7871 26.6236 50.3662 26.6236 49.9273C26.6236 48.6107 27.1466 47.348 28.0776 46.417C29.0086 45.486 30.2713 44.963 31.5879 44.963H34.3459V42.7566H29.3816C27.768 42.7545 26.2021 42.2092 24.9363 41.2086C23.6705 40.2079 22.7785 38.8102 22.404 37.2407H20.5561C20.1173 37.2407 19.6964 37.0664 19.386 36.7561C19.0757 36.4457 18.9014 36.0248 18.9014 35.586C18.9014 35.1471 19.0757 34.7262 19.386 34.4159C19.6964 34.1055 20.1173 33.9312 20.5561 33.9312H23.8657C24.3045 33.9312 24.7254 34.1055 25.0358 34.4159C25.3461 34.7262 25.5204 35.1471 25.5204 35.586C25.5204 36.61 25.9272 37.5921 26.6513 38.3162C27.3754 39.0403 28.3575 39.4471 29.3816 39.4471H42.6197C43.6437 39.4471 44.6258 39.0403 45.3499 38.3162C46.074 37.5921 46.4808 36.61 46.4808 35.586C46.4808 35.1471 46.6552 34.7262 46.9655 34.4159C47.2758 34.1055 47.6967 33.9312 48.1356 33.9312H51.4451C51.884 33.9312 52.3049 34.1055 52.6152 34.4159C52.9256 34.7262 53.0999 35.1471 53.0999 35.586ZM28.3915 36.2755C28.1337 35.9747 27.9438 35.622 27.8345 35.2413C27.7253 34.8605 27.6994 34.4607 27.7585 34.0691L29.6298 21.9341C29.7264 21.2804 30.0555 20.6834 30.5568 20.2527C31.0581 19.8221 31.6979 19.5868 32.3588 19.5899H39.6425C40.3034 19.5868 40.9432 19.8221 41.4445 20.2527C41.9458 20.6834 42.2749 21.2804 42.3715 21.9341L44.2428 34.0691C44.3023 34.4617 44.2764 34.8626 44.1668 35.2442C44.0571 35.6259 43.8664 35.9794 43.6075 36.2806C43.3486 36.5817 43.0278 36.8234 42.6669 36.9891C42.3061 37.1548 41.9136 37.2407 41.5165 37.2407H30.4847C30.0869 37.2404 29.6937 37.1539 29.3324 36.9873C28.9711 36.8207 28.6501 36.5778 28.3915 36.2755ZM31.1287 33.9312H40.8726L39.1723 22.8994H32.829L31.1287 33.9312Z" fill="#576ADF"/>
</g>
<defs>
<clipPath id="clip0_930_13517">
<rect width="35.3017" height="35.3017" fill="white" transform="translate(18.3496 17.9355)"/>
</clipPath>
</defs>
</svg>
