<svg width="151" height="48" viewBox="0 0 151 48" fill="none" xmlns="http://www.w3.org/2000/svg">
<g clip-path="url(#clip0_111_3252)">
<path d="M19.2634 16.8204V21.8409H31.3792C31.0575 24.6182 30.0926 26.7545 28.5915 28.1432C26.876 29.8523 24.0883 31.775 19.2634 31.775C11.8653 31.775 6.07541 25.7932 6.07541 18.4227C6.07541 11.0523 11.758 5.07044 19.2634 5.07044C23.2305 5.07044 26.2327 6.67272 28.3771 8.70226L31.9153 5.17726C28.9132 2.29317 24.8388 0.0499878 19.2634 0.0499878C9.07756 0.0499878 0.5 8.27499 0.5 18.4227C0.5 28.5704 9.07756 36.7954 19.2634 36.7954C24.7316 36.7954 28.9132 34.9795 32.1297 31.6682C35.4535 28.3568 36.5257 23.6568 36.5257 19.9182C36.5257 18.7432 36.4185 17.675 36.3113 16.8204H19.2634Z" fill="#4285F4"/>
<path d="M51.5364 12.6545C44.996 12.6545 39.5278 17.675 39.5278 24.5114C39.5278 31.3477 44.8888 36.3682 51.5364 36.3682C58.184 36.3682 63.545 31.4545 63.545 24.6182C63.545 17.675 58.184 12.6545 51.5364 12.6545ZM51.5364 31.775C47.8909 31.775 44.7816 28.7841 44.7816 24.6182C44.7816 20.3454 47.8909 17.4614 51.5364 17.4614C55.1819 17.4614 58.2912 20.3454 58.2912 24.6182C58.2912 28.7841 55.1819 31.775 51.5364 31.775Z" fill="#EA4335"/>
<path d="M110.186 15.325H109.971C108.792 13.9364 106.54 12.6545 103.645 12.6545C97.6409 12.6545 92.4944 17.7818 92.4944 24.5114C92.4944 31.1341 97.6409 36.3682 103.645 36.3682C106.54 36.3682 108.792 35.0864 109.971 33.6977H110.186V35.4068C110.186 39.8932 107.72 42.35 103.86 42.35C100.643 42.35 98.7131 40.1068 97.8554 38.0773L93.3521 40C94.6388 43.0977 98.177 47.05 103.967 47.05C110.078 47.05 115.332 43.4182 115.332 34.6591V13.2954H110.4V15.325H110.186ZM104.181 31.775C100.536 31.775 97.8554 28.6773 97.8554 24.6182C97.8554 20.4523 100.643 17.4614 104.181 17.4614C107.72 17.4614 110.507 20.5591 110.507 24.725C110.614 28.7841 107.827 31.775 104.181 31.775Z" fill="#4285F4"/>
<path d="M78.2342 12.6545C71.6938 12.6545 66.2256 17.675 66.2256 24.5114C66.2256 31.3477 71.5866 36.3682 78.2342 36.3682C84.8818 36.3682 90.2427 31.4545 90.2427 24.6182C90.2427 17.675 84.8818 12.6545 78.2342 12.6545ZM78.2342 31.775C74.5887 31.775 71.4793 28.7841 71.4793 24.6182C71.4793 20.3454 74.5887 17.4614 78.2342 17.4614C81.8796 17.4614 84.989 20.3454 84.989 24.6182C84.989 28.7841 81.8796 31.775 78.2342 31.775Z" fill="#FBBC05"/>
<path d="M119.299 0.584106H124.446V36.475H119.299V0.584106Z" fill="#34A853"/>
<path d="M140.314 31.775C137.634 31.775 135.811 30.6 134.524 28.1432L150.5 21.6273L149.964 20.2386C148.999 17.5682 145.89 12.6545 139.778 12.6545C133.667 12.6545 128.52 17.4614 128.52 24.5114C128.52 31.1341 133.559 36.3682 140.314 36.3682C145.782 36.3682 148.892 33.0568 150.286 31.1341L146.211 28.4636C144.817 30.4932 142.995 31.775 140.314 31.775ZM139.993 17.1409C142.137 17.1409 143.96 18.2091 144.496 19.7045L133.774 24.1909C133.667 19.2773 137.312 17.1409 139.993 17.1409Z" fill="#EA4335"/>
</g>
<defs>
<clipPath id="clip0_111_3252">
<rect width="150" height="47" fill="white" transform="translate(0.5 0.0499878)"/>
</clipPath>
</defs>
</svg>
