<svg width="171" height="37" viewBox="0 0 171 37" fill="none" xmlns="http://www.w3.org/2000/svg">
<g clip-path="url(#clip0_111_3310)">
<path d="M60.5073 21.3049L59.494 24.1725H59.4096C59.2407 23.5259 58.9311 22.5419 58.4245 21.3611L52.9924 7.72597H47.6729V29.4579H51.1911V16.0476C51.1911 15.2042 51.1911 14.2483 51.1629 13.0676C51.1348 12.4772 51.0785 12.0274 51.0503 11.69H51.1348C51.3036 12.5334 51.5007 13.1519 51.6414 13.5455L58.1712 29.4016H60.648L67.1215 13.4049C67.2623 13.0395 67.403 12.3085 67.5437 11.69H67.6281C67.5437 13.2925 67.4874 14.7263 67.4593 15.5978V29.3735H71.2027V7.66974H66.0801L60.5073 21.3049ZM74.749 13.7985H78.4079V29.3735H74.749V13.7985ZM76.6066 7.21992C75.9874 7.21992 75.4808 7.44483 75.0586 7.83842C74.6364 8.23202 74.4113 8.73806 74.4113 9.35656C74.4113 9.94695 74.6364 10.453 75.0586 10.8466C75.4808 11.2402 75.9874 11.437 76.6066 11.437C77.2258 11.437 77.7606 11.2121 78.1546 10.8466C78.5768 10.453 78.802 9.94695 78.802 9.35656C78.802 8.76618 78.5768 8.26013 78.1546 7.83842C77.7887 7.44483 77.254 7.21992 76.6066 7.21992ZM91.3831 13.658C90.7076 13.5174 90.004 13.433 89.3285 13.433C87.6679 13.433 86.148 13.7985 84.8815 14.5295C83.6149 15.2604 82.6017 16.2725 81.9543 17.5376C81.2788 18.8309 80.9411 20.3209 80.9411 22.0358C80.9411 23.5259 81.2788 24.8472 81.9262 26.0561C82.5735 27.2369 83.4742 28.1927 84.6844 28.8394C85.8384 29.486 87.1894 29.8233 88.7093 29.8233C90.4543 29.8233 91.946 29.4579 93.1281 28.7831L93.1563 28.755V25.3814L93.0156 25.4938C92.4808 25.8874 91.8616 26.2248 91.2424 26.4216C90.595 26.6465 90.004 26.7589 89.4974 26.7589C88.0338 26.7589 86.8798 26.3372 86.0636 25.4095C85.2192 24.5098 84.797 23.2728 84.797 21.7266C84.797 20.1241 85.2192 18.859 86.0917 17.9312C86.9642 17.0035 88.1182 16.5256 89.5255 16.5256C90.7076 16.5256 91.9179 16.9191 93.0156 17.7063L93.1563 17.8188V14.2483L93.1281 14.2202C92.6497 14.0234 92.1149 13.7985 91.3831 13.658ZM103.458 13.5455C102.557 13.5455 101.713 13.8266 100.981 14.417C100.362 14.9231 99.9394 15.654 99.5735 16.5256H99.5454V13.7985H95.8864V29.3735H99.5454V21.4173C99.5454 20.0679 99.8268 18.9433 100.446 18.128C101.065 17.2846 101.853 16.8629 102.81 16.8629C103.148 16.8629 103.486 16.9473 103.908 17.0035C104.302 17.1159 104.583 17.2284 104.78 17.369L104.921 17.4814V13.8266L104.837 13.7985C104.583 13.6298 104.077 13.5455 103.458 13.5455ZM113.421 13.4612C110.86 13.4612 108.805 14.2202 107.37 15.7103C105.906 17.2003 105.203 19.2526 105.203 21.839C105.203 24.2568 105.934 26.2248 107.342 27.6586C108.749 29.0643 110.663 29.7952 113.055 29.7952C115.56 29.7952 117.559 29.0362 118.994 27.518C120.458 25.9999 121.161 23.9757 121.161 21.4736C121.161 18.9996 120.486 17.0316 119.107 15.5978C117.784 14.164 115.842 13.4612 113.421 13.4612ZM116.348 25.4376C115.673 26.3091 114.603 26.7308 113.28 26.7308C111.958 26.7308 110.888 26.3091 110.128 25.3814C109.368 24.5098 109.002 23.2447 109.002 21.6422C109.002 19.9835 109.396 18.7184 110.128 17.8188C110.888 16.9191 111.929 16.4693 113.252 16.4693C114.547 16.4693 115.56 16.891 116.292 17.7626C117.024 18.6341 117.418 19.8992 117.418 21.5579C117.362 23.2447 117.052 24.5661 116.348 25.4376ZM129.324 20.2647C128.17 19.7867 127.438 19.4213 127.1 19.112C126.819 18.8309 126.678 18.4373 126.678 17.9312C126.678 17.5095 126.847 17.0878 127.269 16.8067C127.691 16.5256 128.17 16.385 128.873 16.385C129.492 16.385 130.14 16.4974 130.759 16.6661C131.378 16.8348 131.941 17.0878 132.391 17.4252L132.532 17.5376V14.1078L132.448 14.0797C132.025 13.911 131.463 13.7423 130.787 13.6017C130.112 13.4893 129.492 13.433 128.986 13.433C127.241 13.433 125.805 13.8548 124.679 14.7825C123.554 15.654 123.019 16.8348 123.019 18.2124C123.019 18.9433 123.131 19.5899 123.385 20.1241C123.638 20.6583 124.004 21.1643 124.511 21.586C125.017 21.9796 125.749 22.4294 126.762 22.8511C127.607 23.2166 128.254 23.4978 128.648 23.7227C129.042 23.9476 129.295 24.2006 129.492 24.3974C129.633 24.6223 129.718 24.9034 129.718 25.2689C129.718 26.3091 128.929 26.8152 127.325 26.8152C126.706 26.8152 126.059 26.7027 125.299 26.4497C124.539 26.1967 123.835 25.8312 123.244 25.4095L123.103 25.297V28.8675L123.188 28.8956C123.723 29.1486 124.37 29.3173 125.158 29.5141C125.946 29.6547 126.65 29.7671 127.269 29.7671C129.155 29.7671 130.703 29.3454 131.8 28.4176C132.926 27.518 133.517 26.3653 133.517 24.8753C133.517 23.8351 133.236 22.9074 132.617 22.2045C131.8 21.5298 130.787 20.827 129.324 20.2647ZM143.171 13.4612C140.61 13.4612 138.555 14.2202 137.12 15.7103C135.684 17.2003 134.953 19.2526 134.953 21.839C134.953 24.2568 135.684 26.2248 137.092 27.6586C138.499 29.0643 140.413 29.7952 142.805 29.7952C145.31 29.7952 147.309 29.0362 148.744 27.518C150.208 25.9999 150.911 23.9757 150.911 21.4736C150.911 18.9996 150.236 17.0316 148.857 15.5978C147.534 14.164 145.592 13.4612 143.171 13.4612ZM146.07 25.4376C145.395 26.3091 144.325 26.7308 143.002 26.7308C141.651 26.7308 140.61 26.3091 139.85 25.3814C139.09 24.5098 138.724 23.2447 138.724 21.6422C138.724 19.9835 139.118 18.7184 139.85 17.8188C140.61 16.9191 141.651 16.4693 142.974 16.4693C144.241 16.4693 145.282 16.891 146.014 17.7626C146.746 18.6341 147.14 19.8992 147.14 21.5579C147.14 23.2447 146.774 24.5661 146.07 25.4376ZM170.473 16.8067V13.7985H166.785V9.18788L166.673 9.21599L163.183 10.2562L163.098 10.2843V13.7985H157.582V11.8306C157.582 10.9309 157.807 10.2281 158.201 9.77827C158.595 9.32845 159.186 9.10354 159.918 9.10354C160.425 9.10354 160.959 9.21599 161.55 9.46902L161.691 9.55336V6.37651L161.607 6.3484C161.1 6.17972 160.424 6.06726 159.552 6.06726C158.454 6.06726 157.497 6.32028 156.625 6.74199C155.752 7.21992 155.105 7.86654 154.626 8.73806C154.148 9.58147 153.895 10.5373 153.895 11.6338V13.7985H151.333V16.7786H153.895V29.3735H157.582V16.8067H163.098V24.8191C163.098 28.1084 164.646 29.7671 167.742 29.7671C168.249 29.7671 168.784 29.6828 169.29 29.5984C169.825 29.486 170.219 29.3454 170.444 29.2329L170.473 29.2048V26.1967L170.332 26.3091C170.107 26.4497 169.91 26.5621 169.572 26.6465C169.29 26.7308 169.037 26.7589 168.84 26.7589C168.108 26.7589 167.602 26.5903 167.236 26.1686C166.898 25.775 166.729 25.1283 166.729 24.1725V16.8067H170.473Z" fill="#737373"/>
<path d="M0.5 0.416687H17.7533V17.6504H0.5V0.416687Z" fill="#F25022"/>
<path d="M19.5542 0.416626H36.8075V17.6503H19.5542V0.416626Z" fill="#7FBA00"/>
<path d="M0.5 19.4498H17.7533V36.6835H0.5V19.4498Z" fill="#00A4EF"/>
<path d="M19.5542 19.4498H36.8075V36.6835H19.5542V19.4498Z" fill="#FFB900"/>
</g>
<defs>
<clipPath id="clip0_111_3310">
<rect width="170" height="36.2667" fill="white" transform="translate(0.5 0.416687)"/>
</clipPath>
</defs>
</svg>
