<svg width="60" height="62" viewBox="0 0 60 62" fill="none" xmlns="http://www.w3.org/2000/svg">
<path d="M40.5403 24.5366C40.219 24.3436 39.8334 24.0864 39.6405 23.9578C38.548 24.408 37.5196 25.3727 36.6198 26.3374C34.5632 28.5241 34.756 29.7461 32.5066 30.5822C31.9281 30.7751 31.2854 31.0324 30.3856 31.2253C29.8715 29.6818 28.5861 28.0739 27.2364 28.0739C26.2723 28.0739 25.244 28.5884 23.9586 29.1029C22.4804 29.7461 21.1307 30.5178 20.7451 30.7751L21.3235 31.5469C21.7734 31.2896 22.9946 30.7108 24.28 30.132C25.3726 29.6818 26.3366 29.2959 27.0436 29.2959C28.1362 29.2959 28.8432 30.5178 29.2288 31.4826C27.8148 31.8041 25.5011 31.8684 24.7941 31.8684C24.4728 31.8684 24.3442 31.9328 24.2157 31.9971C24.0872 32.0614 24.0229 32.2543 23.9586 32.5116L23.8944 32.8332H24.6656C28.5861 32.8332 32.2495 32.19 34.5632 30.7751C34.8846 30.8394 35.2059 30.9037 35.5915 30.9037C36.9412 30.9037 38.3551 30.1963 39.1907 29.4888C39.512 29.2316 39.5763 29.0386 39.5763 28.7814C39.5763 28.6527 39.5763 28.5884 39.5763 28.4598L39.512 28.0739C38.2909 29.0386 37.1983 29.8104 35.9129 29.8104C35.6558 29.8104 35.5273 29.8104 35.3987 29.7461C36.6198 27.8166 37.7767 26.0158 40.5403 24.5366Z" fill="#776D65"/>
<path d="M32.2496 26.9163C31.3498 26.9163 31.4783 25.437 31.4141 24.215C28.2648 24.5366 26.3367 25.437 24.2158 26.5947L24.4729 27.5594C26.401 26.4017 28.2648 25.7586 30.2572 25.5013C30.2572 26.659 30.7714 28.2025 32.0568 28.2025C33.4707 28.2025 35.1417 26.0159 37.1341 23.4433L37.6483 22.7358C37.3912 22.5429 37.0698 22.3499 36.877 22.157C34.8204 24.7939 33.0851 26.9163 32.2496 26.9163Z" fill="#776D65"/>
<path d="M25.4368 10.8376C25.1155 10.8376 24.7941 10.7733 24.4085 10.709C24.0872 10.6447 23.7658 10.5803 23.3159 10.5803C22.4804 10.5803 21.5806 10.9019 21.0022 11.4808C19.9096 12.5098 19.8453 13.6674 19.7811 14.6965C19.7168 16.0471 19.4597 16.3687 18.6885 17.3334C18.11 18.1051 17.2745 19.1985 16.6318 20.2918C16.8246 20.3562 17.4673 20.742 17.7244 20.8707C18.4314 19.7773 19.4597 18.4267 20.1024 17.462C20.6809 16.5616 20.9379 16.1757 21.0022 14.9537C21.0022 14.7608 21.0022 14.5678 21.0022 14.3749C21.0665 13.7318 21.195 13.0886 21.8377 12.5098C22.2876 12.0596 22.9303 11.8023 23.573 11.8023C24.2157 11.8023 24.5371 11.9953 25.1155 11.9953C25.5011 11.9953 25.7582 11.931 26.0153 11.8023L26.2081 11.738L25.7582 12.8957L26.8508 13.3459C26.1438 13.7961 24.5371 15.7255 24.5371 17.9765C24.5371 18.8126 24.6656 19.5844 24.8584 20.2275C24.8584 20.2918 24.9227 20.3562 25.0512 20.3562C25.1798 20.3562 25.244 20.2918 25.244 20.1632V19.906C25.3083 19.1985 25.3083 18.1051 25.6297 17.1404C26.0795 15.4683 27.365 13.9247 28.5861 13.1529L26.8508 12.3168L27.622 10.4517L26.7865 10.6447C26.2724 10.709 25.8867 10.8376 25.4368 10.8376Z" fill="#776D65"/>
<path d="M32.1851 3.05554C31.4781 3.05554 31.3496 3.69869 31.3496 4.08457C31.3496 4.40615 31.4782 4.72772 31.7995 4.72772C32.1209 4.72772 32.4422 4.53478 32.7636 4.27752C33.0849 4.02026 33.2777 3.82732 33.2777 3.63437C33.2777 3.44143 33.0849 3.3128 32.8921 3.18417C32.635 3.11986 32.4422 3.05554 32.1851 3.05554Z" fill="#776D65"/>
<path d="M32.5064 16.2401H28.0718L27.5576 17.2048H32.892L32.5064 16.2401Z" fill="#776D65"/>
<path d="M21.902 7.42895C22.1591 7.236 22.4161 7.04306 22.4161 6.7858C22.4161 6.65717 22.3519 6.52854 22.2233 6.46423C22.0305 6.27128 21.7734 6.20697 21.5164 6.20697C21.0022 6.20697 20.7451 6.72149 20.7451 7.17169C20.7451 7.49326 20.9379 7.6862 21.2593 7.6862C21.4521 7.62189 21.7092 7.55757 21.902 7.42895Z" fill="#776D65"/>
<path d="M52.816 26.5303L53.3302 26.8519C53.3944 26.9162 53.4587 26.9162 53.523 26.9162C53.6515 26.9162 53.7158 26.7876 53.7158 26.7233C53.7158 26.659 53.7158 26.5947 53.6515 26.5947C52.109 25.1797 50.5023 23.5076 48.9598 21.8997C47.7387 20.6134 46.5175 19.2628 45.4249 17.9122C45.3607 17.8479 45.2964 17.7836 45.2321 17.7836C45.1036 17.7836 45.0393 17.8479 45.0393 17.9765C45.0393 18.1051 45.1678 18.2981 45.4249 18.7483C46.1962 20.0989 47.2245 21.4495 48.3814 22.7358C49.6668 24.0864 51.2092 25.3727 52.816 26.5303Z" fill="#776D65"/>
<path d="M45.0392 60.8743H46.2603C46.5817 60.8743 46.7745 60.7457 46.9673 60.5527C47.0958 60.4241 47.1601 60.1668 47.1601 59.9096V46.2749C47.1601 46.0176 47.0958 45.8247 46.9673 45.6318C46.8388 45.4388 46.5817 45.3102 46.2603 45.3102H45.0392C44.7178 45.3102 44.525 45.4388 44.3322 45.6318C44.2037 45.7604 44.1394 46.0176 44.1394 46.2749V59.9096C44.1394 60.1668 44.2037 60.3598 44.3322 60.5527C44.525 60.7457 44.7178 60.8743 45.0392 60.8743Z" fill="#776D65"/>
<path d="M24.6011 12.8314C24.4083 12.7027 24.2155 12.6384 24.0227 12.6384C23.5728 12.6384 23.38 12.8957 23.3157 13.1529C23.2515 13.2816 23.2515 13.4102 23.2515 13.5388C23.2515 13.9247 23.4443 14.182 23.7014 14.182C24.087 14.182 24.7939 13.6675 24.7939 13.2173C24.7939 13.0886 24.7297 12.8957 24.6011 12.8314Z" fill="#776D65"/>
<path d="M10.3976 26.0158L10.4619 26.466C10.4619 26.659 10.5905 26.7876 10.719 26.8519C10.9118 26.9162 11.1689 26.9805 11.6188 26.9805C12.7756 26.9805 13.6754 26.8519 14.1896 26.7233C15.475 28.6527 17.2103 29.3602 18.9456 29.3602C20.4238 29.3602 21.8377 28.8457 23.2517 28.0739L22.9946 27.0449C21.6449 27.8166 20.1667 28.3312 18.9456 28.3312C17.5316 28.3312 16.3105 27.7523 15.2179 26.1445C14.768 25.5013 14.4467 24.6652 13.9968 23.8935C13.4826 22.993 12.9685 22.5428 12.0044 22.5428C11.1689 22.5428 10.2691 22.9287 9.43359 23.3146L9.49786 23.5076C9.56213 23.8291 9.69067 24.0864 10.012 24.0864C10.1406 24.0864 10.2691 24.0221 10.3334 24.0221C10.8475 23.8935 11.1689 23.7005 11.683 23.7005C12.4543 23.7005 12.8399 24.1507 13.3541 25.3084L13.5469 25.6943C13.0327 25.8872 11.7473 25.9515 10.7833 25.9515H10.3976V26.0158Z" fill="#776D65"/>
<path d="M59.2429 55.8578C59.4358 55.6649 59.5 55.4719 59.5 55.0217C59.5 53.6711 59.0501 52.2562 58.1503 51.1629C57.2506 50.0695 55.8366 49.2977 53.8443 49.2977C50.2451 49.2977 48.1885 52.1276 48.1885 55.086C48.1885 58.2374 50.3737 61.0673 53.8443 61.0673C55.5795 61.0673 57.3148 60.4241 58.2789 59.2665C58.7288 58.752 59.0501 58.0445 59.0501 57.6586C59.0501 57.53 59.0501 57.4014 58.9216 57.2727C58.8573 57.1441 58.7288 57.0798 58.4717 57.0798H56.8007C56.4793 57.0798 56.2222 57.2084 56.0937 57.4657C55.5795 58.1731 54.8726 58.559 53.8443 58.559C52.3018 58.559 51.2734 57.4014 51.2092 56.0508H58.4717C58.8573 56.0508 59.1144 55.9864 59.2429 55.8578ZM51.2734 53.8641C51.402 52.5778 52.366 51.6131 53.8443 51.6131C55.3225 51.6131 56.2865 52.5778 56.4151 53.8641H51.2734Z" fill="#776D65"/>
<path d="M51.0164 1.25476C50.3737 2.54105 47.8029 6.59287 46.3889 8.26504L47.1602 9.10113C47.9314 8.26504 48.7026 6.85012 49.6024 5.4352H49.7952C49.7952 5.49952 49.7952 5.56383 49.7952 5.69246C49.7952 6.85012 50.3737 7.75053 51.9161 7.75053C52.8159 7.75053 54.2941 7.30033 55.6438 6.85012C56.7364 6.46424 57.7647 6.07835 58.2789 5.94972V4.72774C57.7005 4.92069 56.4793 5.37089 55.2582 5.82109C53.9728 6.27129 52.6874 6.65718 51.9804 6.65718C51.1449 6.65718 50.9521 6.20698 50.9521 5.56383C50.9521 4.27754 51.7876 2.34811 52.3018 1.31908H51.0164V1.25476Z" fill="#776D65"/>
<path d="M40.7973 5.49951C39.7689 4.47048 38.9334 3.31282 38.4193 2.7983C37.3267 1.57632 35.8485 0.0327759 33.4062 0.0327759C31.0925 0.0327759 29.55 1.57632 29.0358 2.86261C28.9073 3.2485 28.7788 3.6987 28.7145 3.89165C28.4574 4.27753 27.4291 6.01403 27.0435 6.72149H28.9716L28.0075 8.52229C29.1001 8.26503 29.8713 8.07209 30.8997 8.07209C31.7994 8.07209 32.5064 8.26503 32.7635 8.84387C33.2777 9.93721 33.2777 13.2173 34.2417 15.6612C35.0772 17.9765 37.1981 20.2275 39.5119 21.964L39.6404 22.0283C39.7689 22.0283 39.8332 21.964 39.8332 21.8354C39.8332 21.7711 39.8332 21.7068 39.7689 21.7068C37.8408 19.7773 36.2341 17.5906 35.3343 15.211C34.4988 12.8957 34.6273 9.67995 33.9204 8.20072C33.4062 7.236 32.3779 6.97874 31.4138 6.97874C30.6426 6.97874 29.9356 7.10737 29.6143 7.236L30.4498 5.82108H29.0358C29.3572 5.30657 29.6785 4.79205 29.8071 4.53479C29.9356 4.27753 29.9999 3.95596 30.1284 3.57007C30.6426 2.21947 31.8637 1.31907 33.4062 1.31907C35.3343 1.31907 36.4912 2.60536 37.648 3.82733C38.1622 4.40616 38.9977 5.62814 40.026 6.52854C40.733 7.17169 42.0184 7.87915 44.0108 9.8729C45.1676 11.0306 46.5173 12.5741 47.867 14.6965C52.8801 22.0283 56.2221 28.5241 58.0217 33.605C52.7515 30.0033 48.1883 26.659 44.5249 22.4785C41.8899 19.5201 39.6404 16.0471 37.648 11.6737C37.5195 11.3521 37.391 11.0949 37.2624 10.8376C37.1981 10.709 37.1339 10.709 37.0696 10.709C36.9411 10.709 36.8768 10.7733 36.8768 10.9019C36.8768 11.0306 36.9411 11.2878 37.0696 11.738C38.0979 16.3043 41.0544 20.3562 44.1393 23.7648C47.2243 27.1092 50.7591 30.0033 53.6513 32.1257L55.9008 38.5572C55.965 38.6858 56.0293 38.8787 56.0293 39.0074C56.0293 39.136 56.0293 39.2003 55.9008 39.2646C55.8365 39.3289 55.7722 39.3289 55.5794 39.3289H54.8724C54.5511 39.3289 54.4868 39.2646 54.3583 39.2003C54.2297 39.136 54.1655 39.0074 54.1012 38.8144C53.9084 38.2356 52.6872 34.8269 52.4944 34.1195C52.4302 33.9908 52.3659 33.9265 52.3016 33.9265C52.1731 33.9265 52.1088 33.9908 52.1088 34.1195C52.1088 34.1838 52.1088 34.3124 52.1731 34.5697C52.4944 36.1132 52.8158 37.8497 52.9443 38.4929C53.0086 38.8144 53.0729 39.0717 53.0729 39.2646C53.0729 39.4576 53.0086 39.5862 52.8801 39.7148L52.2374 40.5509C52.0445 40.7439 51.9803 40.7439 51.8517 40.7439C51.6589 40.7439 51.5304 40.6152 51.4661 40.358C50.6949 36.6277 49.4737 32.0614 49.1524 30.8394C49.0881 30.5822 49.0238 30.3892 48.831 30.3892C48.7025 30.3892 48.6382 30.5179 48.6382 30.6465C48.6382 30.7108 48.6382 30.8394 48.7025 30.9681C48.8953 32.2543 49.6666 37.0779 50.5021 41.4513C50.6306 42.2231 50.952 42.609 51.5947 42.609C51.916 42.609 52.1731 42.4804 52.4302 42.2231C52.8801 41.7729 53.0086 41.7086 53.5228 41.1941C53.9084 40.8725 54.1655 40.6796 54.7439 40.6796H56.2864C56.672 40.6796 56.8648 40.6152 56.9933 40.4223C57.1862 40.2937 57.2504 40.0364 57.2504 39.7148C57.2504 39.3933 57.1862 39.136 57.0576 38.8144C56.672 37.7211 55.3866 34.1838 55.001 33.1548C56.2864 34.1195 58.2145 35.4058 59.05 35.4058C59.3071 35.4058 59.4356 35.2771 59.4356 34.8912C59.4356 32.9618 56.2221 25.1154 48.9596 14.2463C45.1676 8.39366 41.7613 6.39991 40.7973 5.49951Z" fill="#776D65"/>
<path d="M54.744 10.3874C55.9651 9.87292 58.2146 8.97251 59.5 8.52231V7.23602C56.9292 8.20074 52.366 10.0659 49.281 11.738C49.3453 11.8667 49.9237 12.5741 49.988 12.7028C51.2734 12.1882 52.4945 11.8024 53.5228 11.8024C55.001 11.8024 56.2222 11.8024 58.2788 11.3522V10.3874C57.122 10.5804 55.9008 10.8376 55.1296 10.8376C54.6797 10.8376 54.5512 10.7733 54.5512 10.6447C54.4869 10.5804 54.5512 10.5161 54.744 10.3874Z" fill="#776D65"/>
<path d="M24.9227 4.85634C24.2157 4.85634 23.7658 4.85634 23.1231 4.53476C22.2876 4.14888 21.8377 3.95593 21.1308 3.95593C20.231 3.95593 19.3955 4.27751 18.7528 4.92065C17.9815 5.62811 17.7244 6.59283 17.4674 7.62186C17.2745 8.45795 17.0175 9.35835 16.439 10.1301C15.9249 10.8376 15.6035 11.1592 14.5109 12.5098C13.0327 14.2463 12.2615 15.6612 10.9761 18.7483C11.1689 18.7483 11.4902 18.684 11.8116 18.684C12.0044 18.684 12.1329 18.684 12.3257 18.684L12.4543 18.3624C13.1613 16.8188 14.1253 14.7608 15.475 13.1529L15.9249 12.5741C17.3388 10.9662 18.1743 10.0015 18.7528 7.75049C18.9456 6.97872 19.0741 6.27126 19.6525 5.75674C20.1024 5.30654 20.7451 5.11359 21.3236 5.11359C21.8377 5.11359 22.2234 5.24222 22.8018 5.49948C23.2517 5.75674 23.4445 5.82105 23.9586 5.82105C24.1515 5.82105 24.28 5.82105 24.4085 5.82105L23.7016 6.78577L24.6656 7.49323C23.4445 7.87912 22.8018 9.03678 22.5447 9.61561C22.4804 9.74424 22.4804 9.80855 22.4804 9.87287C22.4804 9.93718 22.5447 10.0658 22.6732 10.0658C22.8018 10.0658 22.9303 9.93718 23.0589 9.74424C23.6373 9.03678 24.1515 8.52226 26.3366 7.8148L24.7942 6.65714L25.951 4.92065H24.9227V4.85634Z" fill="#776D65"/>
<path d="M5.38453 8.65092C2.81373 8.65092 1.72113 9.8729 1.72113 10.709C0.949891 11.0306 0.5 11.8666 0.5 12.6384C0.5 14.182 1.65686 15.2753 3.13508 15.2753C3.64924 15.2753 4.1634 15.0824 4.48475 14.8251C4.74183 14.8894 5.06318 14.9537 5.4488 14.9537C6.15577 14.9537 6.99128 14.6965 7.50545 13.8604C7.56972 13.8604 7.63399 13.8604 7.76253 13.8604C8.66231 13.8604 9.49782 13.2816 9.88344 12.4455C10.012 12.2525 10.012 12.1239 10.012 11.9953C10.012 11.8666 9.94771 11.8023 9.81917 11.8023C9.69063 11.8023 9.62636 11.931 9.36928 12.1882C8.79085 12.7027 7.89107 12.8957 6.99129 12.8957C6.54139 13.5388 5.96296 13.9247 5.38453 13.9247C4.93464 13.9247 4.54902 13.7961 4.1634 13.5388C3.84205 13.8604 3.45643 13.989 3.13508 13.989C2.29956 13.989 1.72113 13.4102 1.72113 12.5741C1.72113 11.9953 2.10675 11.4808 2.62091 11.2878C2.68519 10.2588 3.84205 9.55132 5.19172 9.55132C5.38453 9.55132 5.51307 9.55132 5.70588 9.55132C5.89869 9.22975 6.41285 8.84387 7.11983 8.77955C7.24837 8.77955 7.37691 8.77955 7.44118 8.71524C7.50545 8.65092 7.56972 8.58661 7.56972 8.52229C7.56972 8.45798 7.56972 8.39366 7.44118 8.32935C7.37691 8.26503 7.24837 8.26503 7.11983 8.26503C6.47712 8.13641 5.70588 7.75052 5.25599 6.72149C3.71351 6.72149 2.55664 5.4352 2.55664 4.02028V3.95596C2.10675 3.76302 1.72113 3.2485 1.72113 2.66967C1.72113 1.8979 2.36383 1.25475 3.13508 1.25475C3.58497 1.25475 4.03486 1.51201 4.29194 1.83358C4.48475 1.76927 4.74183 1.76927 4.99891 1.76927C6.15577 1.76927 7.44118 2.47673 7.63399 3.95596C9.1122 4.08459 9.49782 5.37088 9.56209 5.8854C9.62636 6.14266 9.62636 6.39991 9.81917 6.39991C10.012 6.39991 10.0763 6.20697 10.1405 5.8854C10.2691 5.37088 10.4619 4.92068 10.8475 4.59911C10.8475 3.2485 11.8758 2.09084 13.2898 2.09084C13.4826 1.64064 13.9967 1.25475 14.5752 1.25475C15.3464 1.25475 15.9891 1.83358 15.9891 2.66967C15.9891 3.11987 15.7963 3.57007 15.4107 3.76302C15.4749 4.02028 15.5392 4.27753 15.5392 4.47048C15.5392 5.37088 15.0251 5.94971 14.061 6.27128C13.9325 6.7858 13.7397 7.30032 13.354 7.62189C12.7113 8.20072 12.0686 8.20072 12.0686 8.45798C12.0686 8.58661 12.1329 8.65092 12.39 8.65092C13.5468 8.65092 14.7037 8.00778 14.8322 6.91443C15.9248 6.52854 16.6318 5.4352 16.6318 4.53479C16.6318 4.27753 16.6318 4.08459 16.5033 3.89165C16.8246 3.57007 17.146 3.11987 17.146 2.3481C17.146 1.70495 16.8889 1.06181 16.3747 0.547292C15.9891 0.290034 15.3464 0.0327759 14.6394 0.0327759C13.6111 0.0327759 12.9041 0.611607 12.5185 1.12612C11.3617 1.12612 9.94771 2.41241 9.94771 4.21322H9.81917C9.69063 3.57007 9.04793 3.18419 8.53377 3.11987C8.01961 1.83358 7.05556 0.675921 5.4488 0.675921C5.25599 0.675921 5.06318 0.675921 4.8061 0.740236C4.35621 0.290034 3.77778 0.0327759 3.07081 0.0327759C1.65686 0.0327759 0.5 1.19044 0.5 2.60536C0.5 3.50576 0.885621 4.08459 1.65686 4.66342V4.85636C1.65686 6.01403 2.878 7.81483 4.74183 7.81483C4.74183 8.13641 5.12745 8.52229 5.51307 8.58661V8.71524H5.38453V8.65092Z" fill="#776D65"/>
<path d="M31.414 58.6876C30.8998 58.6876 30.3857 58.6233 30.0001 58.366C29.6787 58.2374 29.4859 58.0444 29.2931 57.7229C29.1646 57.4656 29.1003 57.337 28.8432 57.144C28.7147 57.0797 28.5219 57.0797 28.2648 57.0797H26.9794C26.7223 57.0797 26.5938 57.144 26.4652 57.2727C26.4009 57.4013 26.3367 57.5299 26.3367 57.7229C26.3367 58.1088 26.4652 58.6876 26.8508 59.1378C27.6221 60.2311 29.2931 61.0672 31.414 61.0672C33.4707 61.0672 36.3628 60.2311 36.3628 57.4013C36.3628 56.6938 36.17 56.0507 35.7844 55.5362C35.2702 54.893 34.6275 54.4428 33.4064 54.1856L31.0284 53.6067C30.0643 53.3495 29.6144 53.1565 29.6144 52.5777C29.6144 51.9989 30.1286 51.5487 31.3497 51.5487C32.0567 51.5487 32.6994 51.6773 33.1493 52.1275C33.4707 52.5134 33.4064 52.7063 33.7277 52.835C33.9205 52.8993 34.1134 52.8993 34.3704 52.8993H35.5273C35.7201 52.8993 35.8487 52.8993 35.9772 52.7707C36.0415 52.7063 36.1057 52.5134 36.1057 52.3205C36.1057 51.8059 35.7844 51.0985 35.1417 50.5196C34.3062 49.8122 33.0208 49.2977 31.414 49.2977C28.5861 49.2977 26.7223 50.6483 26.7223 52.835C26.7223 53.6067 26.9794 54.2499 27.4293 54.7001C27.9434 55.2789 28.7147 55.6648 29.8073 55.9221L32.1853 56.5009C32.828 56.6938 33.4064 56.8868 33.4064 57.4656C33.3421 58.366 32.3781 58.6876 31.414 58.6876Z" fill="#776D65"/>
<path d="M9.62646 8.84388C10.2049 9.61565 11.1047 11.2235 12.0045 13.2816C12.133 13.0243 12.6472 12.3812 12.84 12.1882C12.0687 10.5804 10.7191 9.03682 10.1406 8.39368L9.62646 8.84388Z" fill="#776D65"/>
<path d="M24.4729 22.9287C25.3727 22.4785 26.7866 22.2856 27.5579 22.2856C28.2006 22.2856 28.9075 22.3499 29.486 22.4142C30.1929 22.4785 31.0285 22.6072 31.864 22.6072C33.7921 22.6072 35.7202 21.5781 36.0415 21.3852C35.7844 21.1923 35.5274 20.8707 35.3346 20.6777C34.6919 20.935 33.2779 21.4495 31.864 21.4495C31.157 21.4495 30.5786 21.3852 29.9359 21.3209C29.1004 21.1923 28.3291 21.1279 27.6864 21.1279C26.5938 21.1279 25.2441 21.2566 23.9587 22.157L24.4729 22.9287Z" fill="#776D65"/>
<path d="M22.609 22.0926L22.0306 21.3209C19.7169 22.2213 17.0818 23.6362 17.0818 25.1154C17.0818 25.9515 17.7245 26.5947 19.1384 26.5947C21.1951 26.5947 23.3803 25.5656 25.1798 24.6009L24.9227 24.3436C24.7942 24.1507 24.6657 24.0864 24.4729 24.0864C24.3443 24.0864 24.2158 24.1507 24.0872 24.215C22.609 24.9225 20.938 25.6943 19.3955 25.6943C18.4957 25.6943 18.3029 25.437 18.3029 25.0511C18.3029 23.8934 21.1951 22.6715 22.609 22.0926Z" fill="#776D65"/>
<path d="M42.6613 51.8059C42.8541 51.8059 43.047 51.7416 43.1755 51.613C43.304 51.4844 43.3683 51.2914 43.3683 51.0985V50.391C43.3683 50.1338 43.304 50.0051 43.1755 49.8765C43.047 49.7479 42.8541 49.6836 42.6613 49.6836H40.7975V46.2749C40.7975 46.0176 40.7332 45.8247 40.6047 45.6318C40.4761 45.4388 40.2191 45.3102 39.8977 45.3102H38.7409C38.4195 45.3102 38.2267 45.4388 38.0339 45.6318C37.9053 45.7604 37.8411 46.0176 37.8411 46.2749V49.6836H37.2626C37.0698 49.6836 36.877 49.7479 36.7485 49.8765C36.6199 50.0051 36.5557 50.1981 36.5557 50.391V51.0985C36.5557 51.3557 36.6199 51.5487 36.7485 51.613C36.877 51.7416 37.0698 51.8059 37.2626 51.8059H37.7768V57.0154C37.7768 58.366 38.1624 59.2021 38.8051 59.8453C39.4478 60.4884 40.2191 60.8743 41.633 60.8743H42.5328C42.7256 60.8743 42.9184 60.81 43.0469 60.6814C43.1755 60.5527 43.2398 60.3598 43.2398 60.1668V59.2664C43.2398 59.0092 43.1755 58.8805 43.0469 58.7519C42.9184 58.6233 42.7899 58.559 42.5971 58.559H42.4685C41.8901 58.559 41.5045 58.4303 41.2474 58.1731C40.926 57.8515 40.7975 57.4656 40.7975 56.8225V51.8059H42.6613Z" fill="#776D65"/>
<path d="M58.4717 47.6898C58.6645 47.6898 58.8573 47.6255 58.9859 47.4969C59.1144 47.3683 59.1787 47.1753 59.1787 46.9824V46.0177C59.1787 45.6318 59.1144 45.4388 58.9859 45.3102C58.8573 45.1816 58.6645 45.1172 58.4717 45.1172C58.2789 45.1172 58.1503 45.1172 57.829 45.1816L49.5381 46.0177C49.2811 46.0177 49.2168 46.082 49.0883 46.2106C49.024 46.3392 48.9597 46.4679 48.9597 46.6608V47.1753C48.9597 47.3683 49.024 47.4969 49.0883 47.5612C49.1525 47.6898 49.3453 47.6898 49.4739 47.6898H58.4717Z" fill="#776D65"/>
<path d="M43.2397 25.8872C41.6972 29.1672 39.3192 31.5469 36.8769 32.9618C35.7201 33.6049 34.6918 34.0552 32.4423 34.0552H27.5578C25.8225 34.0552 24.7299 34.3124 23.8944 34.5054C22.9946 34.7626 22.4162 34.9556 21.4521 34.9556C20.1024 34.9556 18.817 34.2481 18.1743 33.6049L19.3312 32.7045L18.7528 31.9328C18.4314 32.19 14.3824 35.2128 13.4826 35.856H13.4183C13.4183 35.663 13.4183 35.4701 13.4183 35.2771C13.4183 32.9618 12.3258 32.4473 10.719 31.8041L9.62641 32.4473C11.8116 33.1547 12.39 33.7979 12.39 35.4058C12.39 36.692 11.9401 37.2066 11.2332 37.6568C10.5262 38.0427 9.69068 38.2356 8.91944 38.2356C8.59808 38.2356 8.46954 38.2999 8.341 38.4285C8.21246 38.5572 8.14819 38.7501 8.14819 39.0074V39.3933H8.40527C9.81922 39.3933 11.1046 39.2003 12.5186 38.0427L17.146 34.441C17.7887 35.2128 19.4597 36.2418 21.3878 36.2418C22.4804 36.2418 23.1874 35.9846 24.2157 35.7273C24.987 35.5344 25.7582 35.3414 27.4935 35.3414H32.378C34.8846 35.3414 36.1057 34.8269 37.3911 34.0552C40.2833 32.4473 42.7255 29.6818 44.1395 26.5304C43.8181 26.2731 43.4968 26.0802 43.2397 25.8872Z" fill="#776D65"/>
<path d="M0.564316 36.0489H0.949937C1.72118 36.0489 1.78545 35.5987 1.78545 35.1485C1.78545 34.8269 1.78545 34.5053 1.78545 34.1195C1.78545 33.2834 1.84972 32.5116 3.19939 31.8684C3.77782 31.6112 6.54144 30.5178 8.59809 29.6174C9.17652 29.3602 9.75495 29.1672 10.3976 29.1672C11.1046 29.1672 11.8759 29.4888 12.9042 30.0676C13.7397 30.5822 14.6395 31.2253 15.3465 31.9971L16.2462 31.2896C15.475 30.3892 14.4467 29.6174 13.3541 28.9743C12.3258 28.3311 11.3617 28.0096 10.5905 28.0096C10.2691 28.0096 9.94776 28.0739 9.75495 28.1382C9.49787 28.2025 9.24079 28.2668 8.85517 28.2668C8.46954 28.2668 8.14819 28.2025 7.6983 27.6237C7.50549 27.4307 6.4129 26.1445 6.15582 25.7586C6.02728 25.5656 5.83447 25.2441 5.83447 24.7938C5.83447 24.6009 5.83447 24.408 5.96301 24.215C6.92706 24.9868 8.14819 25.437 9.56214 25.6299L9.36933 24.6652C7.24841 24.1507 4.99896 22.2856 4.99896 21.1279C4.99896 20.8707 5.06323 20.6777 5.1275 20.4848C5.96301 21.2566 7.82684 22.0283 8.85517 22.0283C9.4336 22.0283 9.88349 21.8354 10.3334 21.6424C10.719 21.4495 11.1689 21.3209 11.7473 21.3209C13.097 21.3209 14.7037 21.964 16.182 22.6072C16.2462 22.6072 16.3748 22.6715 16.439 22.6715C16.6961 22.6715 16.8247 22.5428 16.9532 22.3499L17.146 22.0283C15.5393 21.1279 13.0327 20.0989 11.6831 20.0989C11.1046 20.0989 10.6547 20.2275 10.2048 20.4205C9.75495 20.6134 9.30506 20.8063 8.91944 20.8063C7.89111 20.8063 5.19177 19.7773 5.19177 18.7483C5.19177 17.5906 9.49787 17.0761 9.94776 17.0761L10.3976 16.1114C7.31268 16.1114 3.58501 17.2047 3.58501 18.684C3.58501 19.0699 3.84209 19.3271 3.84209 19.713C3.84209 20.2275 3.58501 20.6134 3.58501 21.1922C3.58501 21.5781 3.84209 22.0926 4.09917 22.4785C4.42052 22.9287 4.74188 23.2503 4.74188 23.5719C4.74188 23.8291 4.54907 24.215 4.54907 24.8582C4.54907 26.2731 5.32031 27.1092 6.92706 28.7814L7.24841 29.1029C5.96301 29.6174 3.52074 30.6465 3.00658 30.9037C1.07848 31.7398 0.564316 32.7045 0.564316 34.2481C0.500046 34.7626 0.500046 35.4701 0.564316 36.0489Z" fill="#776D65"/>
<path d="M13.9966 3.63441C13.9966 3.5701 13.9324 3.44147 13.8038 3.44147C13.7396 3.44147 13.6753 3.50578 13.5468 3.5701C13.1611 3.89167 12.7755 4.27756 12.4542 4.66344C11.94 5.24227 11.4901 6.07836 11.1045 6.91445L11.6829 7.23602C12.0685 6.72151 13.3539 4.79207 13.9966 3.76304C13.9966 3.76304 13.9966 3.69873 13.9966 3.63441Z" fill="#776D65"/>
<path d="M0.5 59.7809C0.5 60.1025 0.56427 60.2955 0.757081 60.4884C0.949891 60.6813 1.20697 60.81 1.59259 60.81H2.55664C2.94227 60.81 3.19935 60.6813 3.39216 60.4884C3.5207 60.2955 3.64924 60.1025 3.64924 59.7809V50.1338H3.71351C3.71351 50.1338 9.1122 59.6523 9.30501 59.9739C9.62636 60.4884 10.1405 60.8743 10.8475 60.8743H12.5185C12.9041 60.8743 13.1612 60.7457 13.354 60.5527C13.4826 60.3598 13.6111 60.1668 13.6111 59.8453V47.6898H35.2059C35.3987 47.6898 35.5915 47.6255 35.72 47.4969C35.8486 47.3682 35.9129 47.1753 35.9129 46.9824V46.082C35.9129 45.8247 35.8486 45.6961 35.72 45.5674C35.5915 45.4388 35.3987 45.3745 35.2059 45.3745H11.4902C11.1046 45.3745 10.8475 45.5031 10.6547 45.6961C10.5261 45.889 10.3976 46.082 10.3976 46.4035V55.8578H10.3333C10.3333 55.8578 5.19172 46.6608 4.93464 46.2106C4.74183 45.889 4.54902 45.6961 4.29194 45.5674C4.03486 45.4388 3.77778 45.3102 3.26362 45.3102H1.52832C1.1427 45.3102 0.885621 45.4388 0.69281 45.6318C0.56427 45.8247 0.5 46.0176 0.5 46.4035V59.7809Z" fill="#776D65"/>
<path d="M25.501 55.8578C25.6938 55.6649 25.7581 55.4719 25.7581 55.0217C25.7581 53.6711 25.3082 52.2562 24.4084 51.1629C23.5086 50.0695 22.0947 49.2977 20.1023 49.2977C16.5032 49.2977 14.4465 52.1276 14.4465 55.086C14.4465 58.2374 16.6317 61.0673 20.1023 61.0673C21.8376 61.0673 23.5729 60.4241 24.5369 59.2665C24.9868 58.752 25.3082 58.0445 25.3082 57.6586C25.3082 57.53 25.3082 57.4014 25.1796 57.2727C25.1154 57.1441 24.9868 57.0798 24.7298 57.0798H23.0587C22.7374 57.0798 22.4803 57.2084 22.3518 57.4657C21.8376 58.1731 21.1306 58.559 20.1023 58.559C18.5598 58.559 17.5315 57.4014 17.4672 56.0508H24.7298C25.1154 56.0508 25.3082 55.9864 25.501 55.8578ZM17.5315 53.8641C17.66 52.5778 18.6241 51.6131 20.1023 51.6131C21.5805 51.6131 22.5446 52.5778 22.6731 53.8641H17.5315Z" fill="#776D65"/>
<path d="M4.22754 12.0596C4.22754 12.1239 4.29181 12.2525 4.35608 12.2525C4.42035 12.2525 4.48462 12.2525 4.61316 12.1882L8.4051 10.9019L8.21229 10.2588C6.6698 10.516 5.51294 10.9019 4.22754 11.931C4.22754 11.931 4.22754 11.9953 4.22754 12.0596Z" fill="#776D65"/>
<path d="M6.54133 4.59913C5.96289 4.14893 5.25592 3.82735 4.48468 3.50578L4.35614 3.44147C4.2276 3.44147 4.16333 3.50578 4.16333 3.5701C4.16333 3.63441 4.16333 3.69873 4.29187 3.76304C5.19165 4.53481 6.92695 6.01405 7.50538 6.46425L7.95527 5.94973C7.50538 5.43522 6.99122 4.98502 6.54133 4.59913Z" fill="#776D65"/>
</svg>
